<?xml version="1.0" encoding="UTF-8" standalone="no"?>
<!-- Generator: Adobe Illustrator 19.0.0, SVG Export Plug-In . SVG Version: 6.00 Build 0)  -->

<svg
   xmlns:dc="http://purl.org/dc/elements/1.1/"
   xmlns:cc="http://creativecommons.org/ns#"
   xmlns:rdf="http://www.w3.org/1999/02/22-rdf-syntax-ns#"
   xmlns:svg="http://www.w3.org/2000/svg"
   xmlns="http://www.w3.org/2000/svg"
   xmlns:sodipodi="http://sodipodi.sourceforge.net/DTD/sodipodi-0.dtd"
   xmlns:inkscape="http://www.inkscape.org/namespaces/inkscape"
   version="1.1"
   id="Layer_1"
   x="0px"
   y="0px"
   viewBox="0 0 96 96"
   style="enable-background:new 0 0 96 96;"
   xml:space="preserve"
   sodipodi:docname="book-icon.svg"
   inkscape:version="0.92.2 (5c3e80d, 2017-08-06)"><metadata
     id="metadata11"><rdf:RDF><cc:Work
         rdf:about=""><dc:format>image/svg+xml</dc:format><dc:type
           rdf:resource="http://purl.org/dc/dcmitype/StillImage" /></cc:Work></rdf:RDF></metadata><defs
     id="defs9" /><sodipodi:namedview
     pagecolor="#ffffff"
     bordercolor="#666666"
     borderopacity="1"
     objecttolerance="10"
     gridtolerance="10"
     guidetolerance="10"
     inkscape:pageopacity="0"
     inkscape:pageshadow="2"
     inkscape:window-width="1050"
     inkscape:window-height="1653"
     id="namedview7"
     showgrid="false"
     inkscape:zoom="8"
     inkscape:cx="48"
     inkscape:cy="62.142136"
     inkscape:window-x="0"
     inkscape:window-y="2"
     inkscape:window-maximized="1"
     inkscape:current-layer="Layer_1" /><style
     type="text/css"
     id="style2">
	.st0{fill:#333333;}
</style><path
     style="opacity:1;vector-effect:none;fill:#aaeeff;fill-opacity:1;fill-rule:evenodd;stroke:none;stroke-width:3.20000005;stroke-linecap:butt;stroke-linejoin:miter;stroke-miterlimit:4;stroke-dasharray:none;stroke-dashoffset:0;stroke-opacity:0.98431373;paint-order:markers fill stroke"
     d="m 17.875,23.875 h 27.0625 l 3.0625,4 3.0625,-4 H 78.125 v 43 h -60.25 z"
     id="rect831"
     inkscape:connector-curvature="0"
     sodipodi:nodetypes="cccccccc"
     inkscape:export-xdpi="576"
     inkscape:export-ydpi="576" /><path
     style="fill:#333333"
     inkscape:connector-curvature="0"
     d="m 24.2,35 h 17.3 v 4.3 H 24.2 Z m 0,13 H 41.5 V 43.7 H 24.2 Z m 0,8.7 H 41.5 V 52.4 H 24.2 Z M 71.8,35 H 54.5 v 4.3 h 17.3 z m 0,8.7 H 54.5 V 48 h 17.3 z m 0,8.6 H 54.5 v 4.3 h 17.3 z m 8.7,-26 v 39 c 0,2.4 -1.9,4.3 -4.3,4.3 H 52.3 L 48,74 43.7,69.7 H 19.8 c -2.4,0 -4.3,-1.9 -4.3,-4.3 v -39 c 0,-2.4 1.9,-4.3 4.3,-4.3 h 23.8 l 4.3,4.3 4.3,-4.3 H 76 c 2.6,-0.1 4.5,1.8 4.5,4.2 z M 45.8,28.5 43.6,26.3 H 19.8 v 39 h 26 z M 76.2,26.3 H 52.3 l -2.2,2.2 v 36.8 h 26 v -39 z"
     class="st0"
     id="XMLID_12_"
     inkscape:export-xdpi="576"
     inkscape:export-ydpi="576" /></svg>