<?xml version="1.0" encoding="utf-8"?>
<!-- Uploaded to SVGRepo https://www.svgrepo.com -->
<svg version="1.2" baseProfile="tiny" id="Layer_1" xmlns="http://www.w3.org/2000/svg" xmlns:xlink="http://www.w3.org/1999/xlink"
	 x="0px" y="0px" viewBox="-77 79 100 100" xml:space="preserve">
<g>
	<path fill="none" d="M-52.7,110.6c-0.7,0.4-1.2,1.1-1.5,1.9c-0.2,0.8-0.1,1.6,0.3,2.4c0.8,1.5,2.7,2,4.2,1.2c1.5-0.8,2-2.7,1.2-4.2
		C-49.3,110.3-51.2,109.8-52.7,110.6z M-50.5,114.5c-0.6,0.3-1.4,0.1-1.7-0.5c-0.3-0.6-0.1-1.4,0.5-1.7c0.6-0.3,1.4-0.1,1.7,0.5
		C-49.7,113.4-49.9,114.2-50.5,114.5z"/>
	<path fill="none" d="M-17.8,89.1c-8.6,0-17.9,2.3-26.5,7.2c-10.7,6-18.9,14.8-23.1,25c-4.2,10.1-4,20.2,0.7,28.4
		c2.5,4.5,7.8,10.4,15.1,13.8c5.5,2.5,14.1,4.4,23.7-1c8.9-5,10-9.1,11-13c0.8-3.1,1.5-6,5.8-8.9c0.7-0.5,1.4-0.9,2.1-1.3
		c3.8-2.2,6.7-2.4,9.5-2.7c2.5-0.2,4.9-0.5,7.8-2.1c1.1-0.6,2.3-1.4,3.5-2.4c3.4-2.8,10.2-11,1.2-27C7.1,94.6-4.6,89.1-17.8,89.1z
		 M-35,143.5c-0.1,1.5-1.4,2.7-2.9,2.6c-1.5-0.1-2.7-1.4-2.6-2.9s1.4-2.7,2.9-2.6C-36.1,140.7-34.9,142-35,143.5z M-30.2,145.6
		c-0.6,2.4-2.7,4.5-5.4,5.4c-1.2,0.4-2.3,0.5-3.5,0.4c-1.7-0.1-3.3-0.8-4.5-1.8c-0.5-0.5-0.5-1.2-0.1-1.7c0.5-0.5,1.2-0.5,1.7-0.1
		c1.3,1.2,3.5,1.5,5.5,0.9c2-0.7,3.4-2.1,3.9-3.7c0.2-0.6,0.8-1,1.5-0.9C-30.4,144.3-30,145-30.2,145.6z M-28.9,148.4
		c0-0.7,0.6-1.2,1.3-1.1c0.6,0,1.2,0.6,1.1,1.3c-0.2,4-3,7.5-7,8.8c-1.3,0.4-2.7,0.6-4,0.5c-2.9-0.2-5.5-1.6-7.2-3.9
		c-0.4-0.5-0.3-1.3,0.3-1.7c0.5-0.4,1.3-0.3,1.7,0.3c1.8,2.5,5.3,3.6,8.5,2.5C-31.2,154-29.1,151.3-28.9,148.4z M-45.1,127.7
		c-0.3-0.6-0.1-1.4,0.5-1.7c0.6-0.3,1.4-0.1,1.7,0.5c0.3,0.6,0.1,1.4-0.5,1.7C-44,128.5-44.7,128.3-45.1,127.7z M-38.1,134.7
		c-1.8,1-4,0.4-5-1.4c-1-1.8-0.4-4,1.4-5c1.8-1,4-0.4,5,1.4C-35.7,131.4-36.4,133.7-38.1,134.7z M-45.6,102.5
		c2.9-1.7,6.7-0.6,8.3,2.3c0.3,0.5,0.1,1.2-0.4,1.5c-0.5,0.3-1.2,0.1-1.5-0.4c-1.1-1.9-3.5-2.6-5.4-1.5c-0.5,0.3-1.2,0.1-1.5-0.4
		C-46.3,103.4-46.1,102.8-45.6,102.5z M-58.2,128.7c0.8-0.4,1.1-1.5,0.6-2.2c-0.3-0.5-0.1-1.2,0.4-1.5c0.5-0.3,1.2-0.1,1.5,0.4
		c1,1.8,0.4,4.1-1.4,5.2c-0.5,0.3-1.2,0.1-1.5-0.4C-58.9,129.6-58.7,129-58.2,128.7z M-60.8,143c-0.7-1.3-0.3-2.9,1-3.6
		s2.9-0.3,3.6,1c0.7,1.3,0.3,2.9-1,3.6C-58.5,144.8-60.1,144.3-60.8,143z M-51.3,157.8c-3.3,0.5-6.5-1.8-7-5.1
		c-0.1-0.6,0.3-1.1,0.9-1.2c0.6-0.1,1.1,0.3,1.2,0.9c0.3,2.2,2.4,3.7,4.6,3.3c0.6-0.1,1.1,0.3,1.2,0.9
		C-50.3,157.2-50.7,157.7-51.3,157.8z M-55.5,115.8c-1.3-2.4-0.5-5.4,1.9-6.7c2.4-1.3,5.4-0.5,6.7,1.9c1.3,2.4,0.5,5.4-1.9,6.7
		C-51.1,119-54.1,118.1-55.5,115.8z M-48.2,129.8c-0.3-0.6-0.1-1.4,0.5-1.7c0.6-0.3,1.4-0.1,1.7,0.5c0.3,0.6,0.1,1.4-0.5,1.7
		C-47.1,130.6-47.9,130.4-48.2,129.8z M-46,131.5c0.6-0.3,1.4-0.1,1.7,0.5c0.3,0.6,0.1,1.4-0.5,1.7c-0.6,0.3-1.4,0.1-1.7-0.5
		S-46.6,131.9-46,131.5z M-31.6,162.3c-1.8,0.6-3.6,0.8-5.3,0.7c-3.8-0.3-7.3-2.1-9.5-5.1c-0.4-0.5-0.3-1.3,0.3-1.7
		c0.5-0.4,1.3-0.3,1.7,0.3c2.6,3.6,7.6,5.1,12.1,3.6c4.5-1.5,7.6-5.6,7.6-10c0-0.7,0.5-1.2,1.2-1.2c0.7,0,1.2,0.5,1.2,1.2
		C-22.4,155.5-26.1,160.4-31.6,162.3z M10,124.1c-1.1,3.1-3.1,5.9-5,7c-0.5,0.3-1,0.4-1.4,0.5c0,0-0.1,0-0.1,0c-1,0-1.8-0.6-2.2-1.5
		c-0.5-1.1,0.1-2.3,0.8-3.7c0.5-1.1,1.3-2.5,1-3.3c0-0.1-0.1-0.3-0.6-0.6c-0.4,0.2-1.3,2-1.7,2.7c-1.3,2.5-2.9,5.5-5.7,7.5
		c-5.7,4-11.3,0.3-11.6,0.1l-0.1-0.1c-4.5-3.8-8.4-5.9-9.4-6c0.4,0.7,2.4,2.6,3.2,3.2c2.4,2.2,4.5,4.1,4,5.9c-0.3,0.9-1,1.5-1.9,1.6
		c-0.1,0-0.2,0-0.3,0c-2.8,0-7.8-3.7-10.7-9c-3.9-7-2.9-14.1,0.5-16c0.9-0.5,1.5-0.3,1.9-0.1c1.1,0.6,1.1,2.1,1.2,3.7
		c0,0.5,0,1.4,0.1,2c0.4-0.3,0.4-1.3,0.3-2.7c-0.1-2.2-0.2-5.3,2-7.8c2.8-3.2,6-4.4,8.4-5.2c1.8-0.6,2.8-1,3.1-1.8
		c0.2-0.5,0.1-0.8,0.1-0.9c-0.1-0.1-0.6-0.2-2,0.1c-4.4,1.1-11.1,5.6-12,8.7c-0.1,0.3-0.3,0.6-0.6,0.7c-0.3,0.2-0.6,0.2-0.9,0.1
		c-0.3-0.1-0.6-0.3-0.7-0.6c-0.2-0.3-0.2-0.6-0.1-0.9c1.2-4.4,9.2-9.4,13.8-10.5c2.1-0.5,3.6-0.3,4.4,0.6c0.7,0.8,0.9,1.9,0.4,3.3
		c-0.6,2-2.5,2.6-4.6,3.4c-2.2,0.8-4.9,1.7-7.3,4.5c-1.6,1.8-1.5,4.1-1.4,6.1c0.1,1.9,0.2,4-1.6,5c-0.9,0.5-1.7,0.6-2.4,0.2
		c-1.3-0.7-1.3-2.4-1.4-4.3c0-0.3,0-0.6,0-0.9c-1.5,1.9-1.9,6.7,1.1,12c2.5,4.4,6.2,7.1,8.1,7.6c0.1,0,0.3,0.1,0.3,0.1
		c-0.5-0.8-2.5-2.6-3.2-3.3c-2.2-2-4-3.7-4-5.3c0-0.6,0.2-1.1,0.7-1.5c2.5-2.2,9,2.7,12.7,5.8c0.4,0.3,4.6,2.7,8.7-0.1
		c2.3-1.6,3.8-4.3,4.9-6.5c1.3-2.4,2.6-5,4.9-3.9c1,0.5,1.6,1.2,1.9,2.1c0.6,1.7-0.3,3.6-1.1,5.2c-0.2,0.4-0.7,1.4-0.7,1.7
		c0.8-0.2,3-2.5,4.2-5.8c0.4-1.2,1.3-4.2-0.3-5.7c-0.1-0.1-0.1-0.1-0.2-0.1c-0.1,0.1-0.2,0.2-0.3,0.2c-0.6,0.4-1.6,1.1-3.3,0.7
		c-1.4-0.4-2-2-2.8-4.1c-0.5-1.3-1.1-2.8-1.9-4.4c-1-1.7-3.2-3.2-5.2-4.6c-2.2-1.5-3.9-2.7-4.1-4.2c-0.2-1.5,0.2-2.5,1.2-3.1
		c1.9-1,4.7,0.6,8.7,3.7L0,102c3.2,2.4,4.5,5.6,5.3,7.8c0.2,0.5,0.5,1.2,0.7,1.6c0.2-0.2,0.3-0.4,0.3-0.6c0.3-1.7-1.9-5.3-3.6-7.3
		c-0.2-0.3-0.3-0.6-0.3-0.9c0-0.3,0.2-0.6,0.4-0.8c0.5-0.4,1.3-0.4,1.7,0.2c0.5,0.6,4.8,5.8,4.1,9.3c-0.2,1.1-0.8,1.9-1.8,2.5
		c-0.8,0.4-1.4,0.3-1.8,0.2c-1.1-0.4-1.6-1.6-2.2-3.2c-0.8-2-1.9-4.7-4.5-6.7l-0.5-0.4c-4.3-3.3-5.6-3.5-5.9-3.5c0,0.1,0,0.3,0,0.7
		c0.1,0.4,2.2,1.9,3,2.4c2.2,1.5,4.7,3.2,6,5.4c1,1.7,1.6,3.4,2.1,4.7c0.3,0.7,0.9,2.4,1.2,2.6c0.5,0.1,0.7,0,1.1-0.3
		c0.6-0.4,1.9-1.3,3.5,0.1C10.9,117.5,11.3,120.5,10,124.1z M-2.5,112c2.9,5.1,1.1,11.7-4.1,14.6c-5.1,2.9-11.7,1.1-14.6-4.1
		c-2.9-5.1-1.1-11.7,4.1-14.6C-11.9,105-5.4,106.9-2.5,112z"/>
	<circle fill="none" cx="-58.5" cy="141.7" r="1.3"/>
	<path d="M17.5,102.3c-11-19.6-39.9-24.4-64.4-10.7c-11.7,6.6-20.7,16.3-25.4,27.5c-4.9,11.6-4.5,23.3,0.9,33
		c3.3,5.9,9.7,13.4,17.7,16.7c3.3,1.3,7.4,2.5,12.2,2.5c4.8,0,10.3-1.2,16.1-4.4c9.6-5.4,11.8-11,13.5-16.7c0.7-2.4,1-3.6,3.7-5.4
		c0.6-0.4,1.2-0.8,1.7-1.1c2.9-1.6,5-1.8,7.4-2.1c2.8-0.3,6-0.6,9.9-2.8c1.4-0.8,2.8-1.8,4.3-3C24.2,128.4,25.1,115.8,17.5,102.3z
		 M11.7,131.9c-1.2,1-2.3,1.8-3.5,2.4c-2.9,1.7-5.3,1.9-7.8,2.1c-2.8,0.3-5.6,0.6-9.5,2.7c-0.7,0.4-1.4,0.8-2.1,1.3
		c-4.2,2.9-5,5.8-5.8,8.9c-1,3.9-2.1,8-11,13c-9.6,5.4-18.2,3.5-23.7,1c-7.3-3.3-12.6-9.3-15.1-13.8c-4.6-8.3-4.9-18.3-0.7-28.4
		c4.2-10.1,12.4-19,23.1-25c8.7-4.9,17.9-7.2,26.5-7.2c13.2,0,24.9,5.5,30.7,15.8C21.9,120.9,15,129.1,11.7,131.9z"/>
	<circle cx="-11.8" cy="117.3" r="10.7"/>
	<path d="M5.5,115.6C5,116,4.8,116.1,4.3,116c-0.3-0.2-0.9-1.9-1.2-2.6c-0.5-1.3-1.1-3-2.1-4.7c-1.3-2.3-3.8-3.9-6-5.4
		c-0.8-0.5-2.9-2-3-2.4c0-0.4,0-0.6,0-0.7c0.3,0,1.6,0.2,5.9,3.5l0.5,0.4c2.6,1.9,3.7,4.7,4.5,6.7c0.6,1.6,1.1,2.8,2.2,3.2
		c0.4,0.1,1,0.2,1.8-0.2c1-0.5,1.6-1.4,1.8-2.5c0.6-3.5-3.6-8.7-4.1-9.3c-0.4-0.5-1.2-0.6-1.7-0.2c-0.3,0.2-0.4,0.5-0.4,0.8
		c0,0.3,0.1,0.7,0.3,0.9c1.7,2,3.9,5.6,3.6,7.3c0,0.2-0.2,0.4-0.3,0.6c-0.2-0.4-0.5-1.1-0.7-1.6c-0.8-2.2-2.1-5.4-5.3-7.8l-0.5-0.4
		c-4-3-6.9-4.7-8.7-3.7c-0.9,0.5-1.3,1.6-1.2,3.1c0.2,1.6,1.9,2.7,4.1,4.2c2,1.3,4.2,2.8,5.2,4.6c0.9,1.5,1.4,3,1.9,4.4
		c0.8,2.2,1.4,3.7,2.8,4.1c1.6,0.5,2.7-0.3,3.3-0.7c0.1,0,0.2-0.1,0.3-0.2c0,0,0.1,0.1,0.2,0.1c1.6,1.4,0.7,4.4,0.3,5.7
		c-1.2,3.3-3.3,5.6-4.2,5.8c0-0.3,0.5-1.3,0.7-1.7c0.8-1.6,1.7-3.5,1.1-5.2c-0.3-0.9-1-1.6-1.9-2.1c-2.3-1.1-3.6,1.4-4.9,3.9
		c-1.2,2.2-2.6,4.9-4.9,6.5c-4.1,2.9-8.3,0.4-8.7,0.1c-3.7-3.1-10.2-8.1-12.7-5.8c-0.5,0.4-0.7,0.9-0.7,1.5c0,1.6,1.9,3.3,4,5.3
		c0.7,0.7,2.7,2.5,3.2,3.3c-0.1,0-0.2,0-0.3-0.1c-1.8-0.5-5.6-3.2-8.1-7.6c-3-5.3-2.6-10.1-1.1-12c0,0.3,0,0.7,0,0.9
		c0,1.8,0.1,3.5,1.4,4.3c0.7,0.4,1.5,0.3,2.4-0.2c1.8-1,1.7-3.1,1.6-5c-0.1-2-0.2-4.3,1.4-6.1c2.4-2.7,5.1-3.7,7.3-4.5
		c2.1-0.8,4-1.4,4.6-3.4c0.5-1.4,0.3-2.5-0.4-3.3c-0.9-0.9-2.3-1.1-4.4-0.6c-4.6,1.1-12.6,6.1-13.8,10.5c-0.1,0.3,0,0.7,0.1,0.9
		c0.2,0.3,0.4,0.5,0.7,0.6c0.3,0.1,0.7,0,0.9-0.1c0.3-0.2,0.5-0.4,0.6-0.7c0.9-3.2,7.6-7.7,12-8.7c1.4-0.3,1.9-0.2,2-0.1
		c0,0.1,0.1,0.3-0.1,0.9c-0.2,0.8-1.3,1.2-3.1,1.8c-2.3,0.8-5.5,2-8.4,5.2c-2.3,2.6-2.1,5.6-2,7.8c0.1,1.4,0.1,2.4-0.3,2.7
		c-0.1-0.5-0.1-1.5-0.1-2c0-1.7-0.1-3.1-1.2-3.7c-0.4-0.2-1.1-0.4-1.9,0.1c-3.4,1.9-4.5,9-0.5,16c3,5.3,8,9,10.7,9
		c0.1,0,0.2,0,0.3,0c1-0.1,1.7-0.7,1.9-1.6c0.5-1.8-1.6-3.7-4-5.9c-0.7-0.6-2.7-2.5-3.2-3.2c1,0,4.8,2.1,9.4,6l0.1,0.1
		c0.2,0.2,5.9,3.9,11.6-0.1c2.8-2,4.4-5,5.7-7.5c0.4-0.8,1.3-2.5,1.7-2.7c0.5,0.3,0.6,0.5,0.6,0.6c0.3,0.7-0.5,2.2-1,3.3
		c-0.7,1.4-1.3,2.6-0.8,3.7c0.5,1,1.3,1.5,2.2,1.5c0,0,0.1,0,0.1,0c0.5,0,0.9-0.2,1.4-0.5c1.9-1,3.9-3.9,5-7c1.3-3.6,0.9-6.6-1-8.3
		C7.4,114.3,6.1,115.2,5.5,115.6z"/>
	<path d="M-56.2,140.5c-0.7-1.3-2.3-1.7-3.6-1s-1.7,2.3-1,3.6c0.7,1.3,2.3,1.7,3.6,1C-55.9,143.3-55.5,141.7-56.2,140.5z
		 M-57.8,142.9c-0.6,0.4-1.4,0.1-1.8-0.5c-0.4-0.6-0.1-1.4,0.5-1.8c0.6-0.4,1.4-0.1,1.8,0.5C-57,141.7-57.2,142.5-57.8,142.9z"/>
	<circle cx="-39.9" cy="131.5" r="3.6"/>
	<circle cx="-44" cy="127.1" r="1.3"/>
	<circle cx="-51.2" cy="113.4" r="1.3"/>
	<circle cx="-47.1" cy="129.2" r="1.3"/>
	<circle cx="-45.4" cy="132.6" r="1.3"/>
	<path d="M-46.9,110.9c-1.3-2.4-4.3-3.2-6.7-1.9c-2.4,1.3-3.2,4.3-1.9,6.7c1.3,2.4,4.3,3.2,6.7,1.9
		C-46.4,116.3-45.6,113.3-46.9,110.9z M-49.7,116c-1.5,0.8-3.4,0.3-4.2-1.2c-0.4-0.7-0.5-1.6-0.3-2.4c0.2-0.8,0.7-1.5,1.5-1.9
		c1.5-0.8,3.4-0.3,4.2,1.2C-47.6,113.3-48.2,115.2-49.7,116z"/>
	<path d="M-57.1,130.6c1.8-1,2.5-3.3,1.4-5.2c-0.3-0.5-0.9-0.7-1.5-0.4c-0.5,0.3-0.7,0.9-0.4,1.5c0.4,0.8,0.2,1.8-0.6,2.2
		c-0.5,0.3-0.7,0.9-0.4,1.5C-58.3,130.7-57.6,130.8-57.1,130.6z"/>
	<path d="M-44.5,104.4c1.9-1.1,4.3-0.4,5.4,1.5c0.3,0.5,0.9,0.7,1.5,0.4c0.5-0.3,0.7-0.9,0.4-1.5c-1.7-2.9-5.4-4-8.3-2.3
		c-0.5,0.3-0.7,0.9-0.4,1.5C-45.7,104.5-45,104.6-44.5,104.4z"/>
	<path d="M-51.6,155.7c-2.2,0.3-4.2-1.1-4.6-3.3c-0.1-0.6-0.6-1-1.2-0.9c-0.6,0.1-1,0.6-0.9,1.2c0.5,3.3,3.7,5.6,7,5.1
		c0.6-0.1,1-0.6,0.9-1.2C-50.5,156-51,155.6-51.6,155.7z"/>
	<path d="M-23.6,148.8c-0.7,0-1.2,0.5-1.2,1.2c0,4.4-3.1,8.5-7.6,10c-4.5,1.5-9.5,0-12.1-3.6c-0.4-0.5-1.1-0.7-1.7-0.3
		c-0.5,0.4-0.7,1.1-0.3,1.7c2.2,3,5.7,4.8,9.5,5.1c1.8,0.1,3.6-0.1,5.3-0.7c5.5-1.8,9.2-6.8,9.2-12.3
		C-22.4,149.3-22.9,148.8-23.6,148.8z"/>
	<path d="M-34.2,155c-3.2,1.1-6.7,0-8.5-2.5c-0.4-0.5-1.1-0.7-1.7-0.3c-0.5,0.4-0.7,1.1-0.3,1.7c1.6,2.3,4.3,3.7,7.2,3.9
		c1.3,0.1,2.7-0.1,4-0.5c4-1.3,6.8-4.9,7-8.8c0-0.7-0.5-1.2-1.1-1.3c-0.7,0-1.2,0.5-1.3,1.1C-29.1,151.3-31.2,154-34.2,155z"/>
	<path d="M-31,144.1c-0.6-0.2-1.3,0.2-1.5,0.9c-0.4,1.7-1.9,3.1-3.9,3.7c-2.1,0.7-4.2,0.3-5.5-0.9c-0.5-0.5-1.2-0.4-1.7,0.1
		c-0.5,0.5-0.4,1.2,0.1,1.7c1.2,1.1,2.7,1.7,4.5,1.8c1.1,0.1,2.3-0.1,3.5-0.4c2.7-0.9,4.8-3,5.4-5.4C-30,145-30.4,144.3-31,144.1z"
		/>
	<circle cx="-37.8" cy="143.3" r="2.8"/>
</g>
</svg>
