<svg xmlns="http://www.w3.org/2000/svg" data-name="Layer 1" viewBox="0 0 64 80" x="0px" y="0px"><title>x</title><path d="M55,22.76H41.25V8.42A7.68,7.68,0,0,0,39,2.94h0A7.68,7.68,0,0,0,33.49.66H8.44A7.77,7.77,0,0,0,.68,8.42v16.7a7.77,7.77,0,0,0,7.76,7.76H9v4.77A3.57,3.57,0,0,0,11.26,41a3.71,3.71,0,0,0,1.34.26,3.53,3.53,0,0,0,2.53-1.07l7-7v14A7.78,7.78,0,0,0,29.94,55H41l7.31,7.27a3.56,3.56,0,0,0,2.56,1.09,3.71,3.71,0,0,0,1.34-.26,3.57,3.57,0,0,0,2.23-3.33V55H55a7.77,7.77,0,0,0,7.77-7.76V30.52A7.77,7.77,0,0,0,55,22.76ZM21.84,29.88a1.5,1.5,0,0,0-1.06.44L13,38.06a.53.53,0,0,1-.61.14.56.56,0,0,1-.36-.55V31.38a1.5,1.5,0,0,0-1.5-1.5H8.44a4.76,4.76,0,0,1-4.76-4.76V8.42A4.76,4.76,0,0,1,8.44,3.66H33.49a4.72,4.72,0,0,1,3.36,1.4h0a4.72,4.72,0,0,1,1.4,3.36v16.7a4.76,4.76,0,0,1-4.76,4.76ZM59.75,47.22A4.77,4.77,0,0,1,55,52H52.9a1.5,1.5,0,0,0-1.5,1.5v6.27a.57.57,0,0,1-1,.4l-7.77-7.73A1.5,1.5,0,0,0,41.58,52H29.94a4.77,4.77,0,0,1-4.77-4.76V32.88h8.32a7.77,7.77,0,0,0,7.73-7.12H55a4.77,4.77,0,0,1,4.77,4.76Z"/><path d="M20.53,7.9c-.39,0-.84.07-1.29.15a5.25,5.25,0,0,0-2.72,1.38,1.88,1.88,0,0,0-.1,2.6c.54.62,1.34.61,2.2,0a1.09,1.09,0,0,1,.17-.13,3,3,0,0,1,2.15-.59,1.52,1.52,0,0,1,1.42,1,1.36,1.36,0,0,1-.54,1.54,8.19,8.19,0,0,1-.73.55,4.2,4.2,0,0,0-1.67,4.5c.21.79.58,1.21,1.07,1.21s.83-.38,1.05-1.16a3.8,3.8,0,0,1,1.28-2c.52-.42,1.08-.79,1.6-1.21a3.91,3.91,0,0,0,1-5.16C24.35,8.68,22.62,8,20.53,7.9Z"/><path d="M20.8,21.42a1.79,1.79,0,0,0-1.95,1.89,1.88,1.88,0,0,0,1.92,2,1.9,1.9,0,0,0,2-2A1.81,1.81,0,0,0,20.8,21.42Z"/><path d="M33.18,37.09a2.21,2.21,0,1,0,2.21,2.21A2.22,2.22,0,0,0,33.18,37.09Z"/><path d="M42.46,37.09a2.21,2.21,0,1,0,2.22,2.21A2.21,2.21,0,0,0,42.46,37.09Z"/><path d="M51.75,37.09A2.21,2.21,0,1,0,54,39.3,2.22,2.22,0,0,0,51.75,37.09Z"/><text x="0" y="79" fill="#000000" font-size="5px" font-weight="bold" font-family="'Helvetica Neue', Helvetica, Arial-Unicode, Arial, Sans-serif">Created by Arafat Uddin</text><text x="0" y="84" fill="#000000" font-size="5px" font-weight="bold" font-family="'Helvetica Neue', Helvetica, Arial-Unicode, Arial, Sans-serif">from the Noun Project</text></svg>