<svg xmlns="http://www.w3.org/2000/svg" xmlns:xlink="http://www.w3.org/1999/xlink" version="1.1" x="0px" y="0px" viewBox="-55 147 500 625" style="enable-background:new -55 147 500 500;" xml:space="preserve"><g><path d="M430.7,460.9h-41.8V161.1c0-7.8-6.4-14.1-14.3-14.1H15.3C7.4,147,1,153.3,1,161.1v299.8h-41.7c-7.9,0-14.3,6.3-14.3,14.1   v157.9c0,7.8,6.4,14.1,14.3,14.1h471.5c7.9,0,14.3-6.3,14.3-14.1V475C445,467.2,438.6,460.9,430.7,460.9z M29.6,175.2h330.8v285.7   H29.6V175.2z M416.5,618.8h-443V489.1h443V618.8z"/><path d="M315.3,210.1c-79.9-8.5-160.8-8.5-240.7,0c-7.2-0.4-13.6,4.5-14.9,11.7c-11.2,63.9-11.2,128.7,0,192.5   c1.2,6.9,7.2,11.7,14,11.7c0.3,0,0.5,0,0.8,0c39.9,4.3,80.2,6.4,120.4,6.4s80.4-2.1,120.4-6.4c0.3,0,0.5,0,0.8,0   c6.8,0,12.8-4.8,14-11.7c11.2-63.9,11.2-128.7,0-192.5C329,214.6,322.5,209.7,315.3,210.1z M303.9,398.8   c-72.3,7.1-145.5,7.1-217.8,0c-8.3-53.6-8.3-107.8,0-161.5c72.3-7.1,145.5-7.1,217.8,0C312.2,290.9,312.2,345.2,303.9,398.8z"/><path d="M2.4,540.1H107c7.9,0,14.3-6.3,14.3-14.1s-6.4-14.1-14.3-14.1H2.4c-7.9,0-14.3,6.3-14.3,14.1S-5.5,540.1,2.4,540.1z"/><path d="M290.4,589.2c7.9,0,14.3-6.3,14.3-14.1v-42.3c0-7.8-6.4-14.1-14.3-14.1s-14.3,6.3-14.3,14.1v42.3   C276.2,582.9,282.5,589.2,290.4,589.2z"/><path d="M336.5,589.2c7.9,0,14.3-6.3,14.3-14.1v-42.3c0-7.8-6.4-14.1-14.3-14.1s-14.3,6.3-14.3,14.1v42.3   C322.3,582.9,328.6,589.2,336.5,589.2z"/><path d="M382.6,589.2c7.9,0,14.3-6.3,14.3-14.1v-42.3c0-7.8-6.4-14.1-14.3-14.1s-14.3,6.3-14.3,14.1v42.3   C368.4,582.9,374.7,589.2,382.6,589.2z"/></g><text x="-55" y="662" fill="#000000" font-size="5px" font-weight="bold" font-family="'Helvetica Neue', Helvetica, Arial-Unicode, Arial, Sans-serif">Created by Serhii Smirnov</text><text x="-55" y="667" fill="#000000" font-size="5px" font-weight="bold" font-family="'Helvetica Neue', Helvetica, Arial-Unicode, Arial, Sans-serif">from the Noun Project</text></svg>