<svg xmlns="http://www.w3.org/2000/svg" xmlns:xlink="http://www.w3.org/1999/xlink" version="1.1" x="0px" y="0px" viewBox="0 0 66 82.5" enable-background="new 0 0 66 66" xml:space="preserve"><g><path d="M64.1,17.9c-0.6-0.5-1.5-0.5-2.1,0c-0.5,0.5-1.1,1-1.8,1.3L45.9,5.3c0.3-0.7,0.8-1.3,1.3-1.8c0.6-0.6,0.5-1.5,0-2.1   c-0.6-0.5-1.5-0.5-2.1,0c-4.5,4.6-3.7,12.7-2.9,18.8c-2.3-0.2-4.7-0.4-7-0.3c-5.5,0.1-9.2,1.3-11.7,3.9c-4.1,4.3-3.8,11.3-2.9,18.8   c-2.3-0.2-4.7-0.4-7.1-0.3C8,42.3,4.3,43.5,1.8,46.1c-0.3,0.3-0.4,0.7-0.4,1s0.2,0.8,0.4,1c0.6,0.5,1.5,0.5,2.1,0   c0.5-0.5,1.1-1,1.8-1.3l14.4,13.9c-0.3,0.7-0.8,1.3-1.3,1.8c-0.6,0.6-0.5,1.5,0,2.1c0.3,0.3,0.7,0.4,1,0.4c0.4,0,0.8-0.2,1-0.4   c4.5-4.6,3.7-12.7,2.9-18.8c2.3,0.2,4.7,0.4,7,0.3c5.5-0.1,9.2-1.3,11.7-3.9c4.5-4.6,3.7-12.7,2.9-18.8c2.3,0.2,4.7,0.4,7.1,0.3   c5.5-0.1,9.2-1.3,11.6-3.9c0.3-0.3,0.4-0.7,0.4-1C64.6,18.5,64.4,18.1,64.1,17.9z M39.7,40.9c-1.5,1.1-3.5,1.8-6.2,2.1L23,32.8   c0.2-2.4,0.7-4.6,2-6.2L39.7,40.9z M30.9,43.2C30.9,43.2,30.9,43.2,30.9,43.2c-2.4,0-4.9-0.1-7.4-0.4c-0.3-2.4-0.6-4.9-0.6-7.4   L30.9,43.2z M26.3,25.2c1.5-1.1,3.5-1.8,6.1-2.1L43,33.3c-0.2,2.4-0.7,4.6-2,6.2L26.3,25.2z M35.1,22.9   C35.1,22.9,35.1,22.9,35.1,22.9c2.4,0,4.9,0.1,7.4,0.4c0.3,2.4,0.6,4.9,0.6,7.4L35.1,22.9z M45.1,20.5c-0.3-2.2-0.5-4.5-0.6-6.8   l7.4,7.2C49.8,20.9,47.5,20.7,45.1,20.5z M20.9,45.5c0.3,2.2,0.5,4.5,0.6,6.8l-7.4-7.2C16.2,45.2,18.5,45.3,20.9,45.5z M58.3,20.1   c-1.1,0.3-2.3,0.5-3.7,0.7L44.6,11c0.1-1.3,0.3-2.5,0.6-3.7L58.3,20.1z M7.7,45.9c1.1-0.3,2.3-0.5,3.7-0.7L21.4,55   c-0.1,1.3-0.3,2.5-0.6,3.7L7.7,45.9z"/></g><text x="0" y="81" fill="#000000" font-size="5px" font-weight="bold" font-family="'Helvetica Neue', Helvetica, Arial-Unicode, Arial, Sans-serif">Created by ProSymbols</text><text x="0" y="86" fill="#000000" font-size="5px" font-weight="bold" font-family="'Helvetica Neue', Helvetica, Arial-Unicode, Arial, Sans-serif">from the Noun Project</text></svg>