<?xml version="1.0" encoding="UTF-8" standalone="no"?>
<!-- Created with Inkscape (http://www.inkscape.org/) -->

<svg
   xmlns:dc="http://purl.org/dc/elements/1.1/"
   xmlns:cc="http://creativecommons.org/ns#"
   xmlns:rdf="http://www.w3.org/1999/02/22-rdf-syntax-ns#"
   xmlns:svg="http://www.w3.org/2000/svg"
   xmlns="http://www.w3.org/2000/svg"
   xmlns:sodipodi="http://sodipodi.sourceforge.net/DTD/sodipodi-0.dtd"
   xmlns:inkscape="http://www.inkscape.org/namespaces/inkscape"
   width="21.879999"
   height="14.2"
   id="svg2"
   version="1.1"
   inkscape:version="0.91 r13725"
   inkscape:export-filename="/home/yky/latex/eye-symbol.png"
   inkscape:export-xdpi="192"
   inkscape:export-ydpi="192"
   sodipodi:docname="eye-symbol.svg">
  <defs
     id="defs4" />
  <sodipodi:namedview
     id="base"
     pagecolor="#ffffff"
     bordercolor="#666666"
     borderopacity="1.0"
     inkscape:pageopacity="0.0"
     inkscape:pageshadow="2"
     inkscape:zoom="26.715293"
     inkscape:cx="10.56571"
     inkscape:cy="6.5329697"
     inkscape:document-units="px"
     inkscape:current-layer="layer1"
     showgrid="false"
     fit-margin-top="0.7"
     fit-margin-left="0.7"
     fit-margin-right="0.7"
     fit-margin-bottom="0.7"
     inkscape:window-width="1050"
     inkscape:window-height="1656"
     inkscape:window-x="0"
     inkscape:window-y="0"
     inkscape:window-maximized="1" />
  <metadata
     id="metadata7">
    <rdf:RDF>
      <cc:Work
         rdf:about="">
        <dc:format>image/svg+xml</dc:format>
        <dc:type
           rdf:resource="http://purl.org/dc/dcmitype/StillImage" />
        <dc:title></dc:title>
      </cc:Work>
    </rdf:RDF>
  </metadata>
  <g
     inkscape:label="Layer 1"
     inkscape:groupmode="layer"
     id="layer1"
     transform="translate(-248.38622,-474.51382)">
    <g
       style="fill:#000000"
       id="g3372"
       transform="matrix(0.04,0,0,0.04,249.08622,471.37382)">
      <g
         id="g3362">
        <path
           id="path3364"
           d="M 256,96 C 144.341,96 47.559,161.021 0,256 47.559,350.979 144.341,416 256,416 367.657,416 464.439,350.979 512,256 464.442,161.021 367.657,96 256,96 Z m 126.225,84.852 c 30.081,19.187 55.571,44.887 74.717,75.148 -19.146,30.261 -44.637,55.961 -74.718,75.149 C 344.427,355.257 300.779,368 256,368 211.22,368 167.572,355.257 129.775,331.148 99.695,311.962 74.205,286.262 55.058,256 c 19.146,-30.262 44.637,-55.962 74.717,-75.148 1.959,-1.25 3.938,-2.461 5.929,-3.65 C 130.725,190.866 128,205.613 128,221 c 0,70.692 57.308,128 128,128 70.692,0 128,-57.308 128,-128 0,-15.387 -2.725,-30.134 -7.704,-43.799 1.99,1.189 3.969,2.401 5.929,3.651 z M 256,205 c 0,26.51 -21.49,48 -48,48 -26.51,0 -48,-21.49 -48,-48 0,-26.51 21.49,-48 48,-48 26.51,0 48,21.49 48,48 z"
           inkscape:connector-curvature="0" />
      </g>
    </g>
  </g>
</svg>
