<?xml version="1.0" encoding="UTF-8"?>
<!-- Generator: IcoMoon.io -->
<!DOCTYPE svg PUBLIC "-//W3C//DTD SVG 1.1//EN" "http://www.w3.org/Graphics/SVG/1.1/DTD/svg11.dtd">
<svg width="512" height="512" viewBox="0 0 512 512" xmlns="http://www.w3.org/2000/svg" xmlns:xlink="http://www.w3.org/1999/xlink" fill="#000000"><g><path d="M 256,96C 144.341,96, 47.559,161.021,0,256c 47.559,94.979, 144.341,160, 256,160c 111.657,0, 208.439-65.021, 256-160 C 464.442,161.021, 367.657,96, 256,96z M 382.225,180.852c 30.081,19.187, 55.571,44.887, 74.717,75.148 c-19.146,30.261-44.637,55.961-74.718,75.149C 344.427,355.257, 300.779,368, 256,368c-44.78,0-88.428-12.743-126.225-36.852 C 99.695,311.962, 74.205,286.262, 55.058,256c 19.146-30.262, 44.637-55.962, 74.717-75.148c 1.959-1.25, 3.938-2.461, 5.929-3.65 C 130.725,190.866, 128,205.613, 128,221c0,70.692, 57.308,128, 128,128s 128-57.308, 128-128c0-15.387-2.725-30.134-7.704-43.799 C 378.286,178.39, 380.265,179.602, 382.225,180.852z M 256,205c0,26.51-21.49,48-48,48s-48-21.49-48-48s 21.49-48, 48-48 S 256,178.49, 256,205z"/></g></svg>