<?xml version="1.0" encoding="iso-8859-1"?>
<!DOCTYPE svg PUBLIC "-//W3C//DTD SVG 1.0//EN" "http://www.w3.org/TR/2001/REC-SVG-20010904/DTD/svg10.dtd">
<!-- Creator: CorelDRAW -->
<svg xmlns="http://www.w3.org/2000/svg" xmlns:odm="http://product.corel.com/CGS/11/cddns/" xml:space="preserve" width="8.58268in" height="6.10236in" style="shape-rendering:geometricPrecision; text-rendering:geometricPrecision; image-rendering:optimizeQuality; fill-rule:evenodd"
     viewBox="0 0 8582 6102">
 <defs>
  <style type="text/css">
   <![CDATA[
    .str0 {stroke:#F1E900;stroke-width:0;stroke-linejoin:bevel}
    .str1 {stroke:#DA251D;stroke-width:111;stroke-linejoin:bevel}
    .fil1 {fill:none}
    .fil0 {fill:#1F1A17}
   ]]>
  </style>
 </defs>
 <g id="Ebene 1">
  <path class="fil0" d="M4237 454l75 -358 265 0 -12 60 -192 0 -17 82 185 0 -12 59 -185 0 -23 98 208 0 -12 59 -280 0z"/>
  <path class="fil0" d="M8382 5933l-65 73 -86 0 120 -133 -66 -127 75 0 38 74 65 -74 85 0 -120 135 66 125 -75 0 -37 -73z"/>
 </g>
 <g id="2">
  <path class="fil1 str0" d="M3917 5787l0 -140"/>
  <g>
   <path class="fil0" d="M7883 5840l-7810 0 0 56 7810 0z"/>
   <path class="fil0" d="M7860 5723l264 145 -264 145 0 -290 264 145z"/>
  </g>
 </g>
 <g id="0">
  <path class="fil1 str1" d="M260 5786l0 0 24 0 25 0 24 0 25 0 24 0 25 0 24 0 25 0 24 -1 24 0 25 0 24 0 25 0 24 -2 25 0 24 0 25 -1 24 0 25 -1 24 0 25 -1 24 0 25 -1 24 -1 25 0 24 -2 25 -1 24 -1 25 -2 24 -1 24 -2 25 -2 24 -1 25 -2 24 -3 25 -2 24 -4 25 -2 24 -3 25 -4 24 -3 25 -4 24 -5 25 -4 24 -6 25 -5 24 -6 25 -7 24 -7 23 -6 25 -7 24 -10 25 -8 24 -10 25 -10 24 -11 25 -12 24 -12 25 -14 24 -14 25 -15 24 -15 25 -18 24 -17 25 -19 24 -21 24 -21 25 -22 24 -23 25 -26 24 -25 25 -28 24 -28 25 -31 24 -32 25 -33 24 -35 25 -36 24 -38 25 -40 24 -42 25 -43 24 -44 25 -47 24 -49 25 -50 24 -53 24 -53 25 -56 24 -57 25 -60 24 -60 25 -63 24 -66 25 -66 24 -68 25 -69 24 -73 25 -72 24 -76 25 -76 24 -76 25 -80 24 -80 25 -82 24 -81 25 -84 24 -84 24 -85 25 -86 24 -87 25 -86 24 -87 25 -88 24 -87 25 -88 24 -86 25 -87 24 -85 25 -85 24 -86 25 -82 24 -83 25 -80 24 -81 25 -77 24 -76 25 -74 24 -71 24 -70 25 -68 24 -64 25 -62 24 -59 25 -56 24 -52 25 -51 24 -45 25 -43 24 -40 25 -35 24 -32 25 -28 24 -24 25 -21 24 -16 25 -12 24 -8 25 -4 23 0 24 4 25 8 24 12 25 16 24 21 25 24 24 28 25 32 24 35 25 40 24 43 24 45 25 51 24 52 25 56 24 59 25 62 24 64 25 68 24 70 25 71 24 74 25 76 24 77 25 81 24 80 25 83 24 82 25 86 24 85 25 85 24 87 24 86 25 88 24 87 25 88 24 87 25 86 24 87 25 86 24 85 25 84 24 84 25 81 24 82 25 80 24 80 25 76 24 76 25 76 24 72 25 73 24 69 24 68 25 66 24 66 25 63 24 60 25 60 24 57 25 56 24 53 25 53 24 50 25 49 24 47 25 44 24 43 25 42 24 40 25 38 24 36 25 35 24 33 24 32 25 31 24 28 25 28 24 25 25 26 24 23 25 22 24 21 25 21 24 19 25 17 24 18 25 15 24 15 25 14 24 14 25 12 24 12 25 11 24 10 24 10 25 8 24 10 25 7 23 6 25 7 24 7 25 6 24 5 25 6 24 4 25 5 24 4 24 3 25 4 24 3 25 2 24 4 25 2 24 3 25 2 24 1 25 2 24 2 25 1 24 2 25 1 24 1 25 2 24 0 25 1 24 1 25 0 24 1 24 0 25 1 24 0 25 1 24 0 25 0 24 2 25 0 24 0 25 0 24 0 25 1 24 0 25 0 24 0 25 0 24 0 25 0 24 0 25 0"/>
 </g>
 <g id="1">
  <g>
   <path class="fil0" d="M3889 440l0 5418 56 0 0 -5418z"/>
   <path class="fil0" d="M3772 462l145 -264 145 264 -290 0 145 -264z"/>
  </g>
 </g>
</svg>
