<?xml version="1.0" encoding="utf-8"?>
<!-- Svg Vector Icons : http://www.onlinewebfonts.com/icon -->
<!DOCTYPE svg PUBLIC "-//W3C//DTD SVG 1.1//EN" "http://www.w3.org/Graphics/SVG/1.1/DTD/svg11.dtd">
<svg version="1.1" xmlns="http://www.w3.org/2000/svg" xmlns:xlink="http://www.w3.org/1999/xlink" x="0px" y="0px" viewBox="0 0 1000 1000" enable-background="new 0 0 1000 1000" xml:space="preserve">
<metadata> Svg Vector Icons : http://www.onlinewebfonts.com/icon </metadata>
<g><path d="M680.4,502.4c-5.7-7.2-13.1-16.8-15.1-22.5c-3.5-9.6-6.2-40.6-6.2-40.6c-1.1-36.6-10.1-52.4-10.1-52.4c-15.5-24.7-18.3-70.9-18.3-70.9l-0.7-77.9c-5.4-53.1-44.6-53.6-44.6-53.6c-30.6-4.6-40.7-13.1-43.8-16.9l0.5-0.1c0,0-28.9-44.2-16.3-62.8c0,0,15.7-21.4,15.9-33c0,0,3.9-19.7-16.5-41.7c-9.9-10.5-22.8-20.3-54.2-20c-12.3,0.1-31,3.4-45.3,19c-8.7,9.4-15,21.3-12.8,40.5c0.4,4.2,6.5,8.8,2.4,17l-8.4,18.6c0,0-0.1,4.8,7.3,4.8c0,0,1.9,0.2,1.4,4.3l0,6c0,0,0.3,1.8,3.5,2.8l-0.3,1.8c0,0-1.7,1.9,1.3,6c1.1,1.5,2.9,3.4,2,7.3l1.7,9.3c0,0,3.4,4,16.9,2.1c4.7-0.7,13.4-3.1,18.6,3.4c0,0,0.9,7.5,1.8,13h-1.3c0,0-5.5,12.8-45,18.7c0,0-39.2,0.4-44.7,53.6l-0.7,77.9c0,0-2.9,46.1-18.4,70.9c0,0-9,15.9-10.1,52.4c0,0-2.6,30.9-6.1,40.5c-2.1,5.7-9.4,15.3-15.2,22.5c-11.2,14-30.3,43.3-20.1,46.6c0,0,7.8,0.7,18.4-19.8c0,0-0.2,7.9-8.6,30.9c-1.7,4.4-8.6,26.3,2.7,18.4c0,0,5.1-3.6,12-26.1c0,0-3.6,37.9,0.4,39.9c5.3,2.6,8.2-4.9,10.6-38.2c0,0,2.4-10.7,3.6,30.3c0.1,2.1,3.2,12.6,7.5,3.7c3.6-7.5,2-27.6,2-34.2c0,0,4.7,25.9,8.9,25.9c0,0,5.1,6,3.1-26c-0.4-5.3,1.5-16.1,1.7-19.3l0.5-12.3c0,0-1.3-14.1-1.3-19.9c0-1.5,5-20.7,18.4-41c0,0,27.7-49.1,25.9-81.2c0,0-0.4-30.6,10.7-48c0,0,7.9,86.7,2.5,111.1c0,0-24.9,59.8-19.4,104.5c4.1,33.2,11.8,104.2,19.8,132.2c4.1,14.5,1.7,51,5,60.2c1.4,3.9,0.7,7.6-2.5,16.7c-11.2,31.4-9.8,53.6,18.3,136.9c0,0,8.7,18.4,4.3,51.7c0,0-18,36.9-6.4,37.7c0,0,1,2.4,4.8,0.5c0,0,6.2,6.4,12.9,2.9c0,0,6.2,4.9,11.5,0.6c0,0,4.4,4.8,10.5,1c0,0,8.2,5.4,13-0.5c0,0,8.7,2-6.7-36.9c0,0-5.9-41.2-9-49.3c-6.1-15.4-1.9-57.4-0.5-66.4c2.1-15,1-40.7-2.9-60.5c-2.8-14.3,4.9-41.2,7.7-57.7c5.9-34.7,17.2-123.5,15.8-140.3l4.8,1.6c3.4,0,5.6-1.6,5.6-1.6c-1.4,16.7,10,105.5,15.9,140.3c2.7,16.5,10.4,43.4,7.6,57.7c-3.9,19.8-5,45.5-2.9,60.5c1.3,9.1,5.7,51.1-0.4,66.4c-3.3,8-9.1,49.3-9.1,49.3c-15.4,38.8-6.7,36.9-6.7,36.9c4.8,5.9,13,0.5,13,0.5c6.2,3.9,10.5-1,10.5-1c5.4,4.4,11.5-0.6,11.5-0.6c6.8,3.5,13-2.9,13-2.9c3.8,2,4.8-0.5,4.8-0.5c11.6-0.7-6.4-37.7-6.4-37.7c-4.4-33.3,4.3-51.7,4.3-51.7c28-83.4,29.5-105.5,18.3-136.9c-3.3-9-4-12.7-2.6-16.7c3.4-9.1,1-45.7,5.1-60.2c7.9-27.9,15.7-99,19.8-132.2C605.9,502.9,581,443,581,443c-5.4-24.3,2.6-111.1,2.6-111.1c11.2,17.3,10.8,48,10.8,48c-1.8,32.1,25.9,81.2,25.9,81.2c13.3,20.3,18.3,39.6,18.3,41c0,5.8-1.3,19.9-1.3,19.9l0.5,12.3c0.3,3.2,2,14,1.7,19.3c-2.1,32,3,26,3,26c4.4,0,9.1-25.9,9.1-25.9c0,6.6-1.6,26.6,2,34.2c4.3,8.9,7.5-1.6,7.5-3.7c1.1-40.9,3.5-30.2,3.5-30.2c2.4,33.2,5.4,40.7,10.6,38.1c4-2,0.4-39.9,0.4-39.9c6.9,22.5,12.1,26.1,12.1,26.1c11.3,7.9,4.3-14,2.8-18.4c-8.5-23-8.6-30.9-8.6-30.9c10.7,20.7,18.6,19.9,18.6,19.9C710.6,545.7,691.6,516.4,680.4,502.4z M432.7,62.4c-2.9-2.9-5.4-5.5-5.8-9.3c-1-9.1,1-13.1,5.4-17.9c11.8-12.9,27.3-15.8,38.2-16c29.3-0.3,39.7,8.3,47.9,17.1c13.4,14.6,14.5,27.3,14.3,31.9l0.1,1.7c0.3,16.9-12.1,30.2-27.7,30.9c-10.9,0.6-11.6-6.8-16.9-12.3l-2.2,0.2c-12.8,0.6-10.7-13-15.7-16.7C458.5,63.2,441.7,71.2,432.7,62.4z"/></g>
</svg>
