<svg xmlns="http://www.w3.org/2000/svg" xmlns:xlink="http://www.w3.org/1999/xlink" xml:space="preserve" version="1.1" style="shape-rendering:geometricPrecision;text-rendering:geometricPrecision;image-rendering:optimizeQuality;" viewBox="0 0 846.66 1058.325" x="0px" y="0px" fill-rule="evenodd" clip-rule="evenodd"><defs><style type="text/css">
   
    .fil0 {fill:black;fill-rule:nonzero}
   
  </style></defs><g><path class="fil0" d="M809.14 118.76l0 482.74 -771.61 0 0 -482.74 771.61 0zm-414.11 202.39l56.62 -38.98 0 77.96 -56.62 -38.98zm56.62 77.96l-56.62 38.98 0 -77.96 56.62 38.98zm-86.66 -142.35c0,68.91 0,137.83 0,206.74 -68.91,0 -137.83,0 -206.74,0l0 -206.74c68.91,0 137.83,0 206.74,0zm323.43 0l0 206.74c-68.91,0 -137.83,0 -206.74,0 0,-68.91 0,-137.83 0,-206.74 68.91,0 137.83,0 206.74,0zm-93.11 112.13l52.86 31.17 -13.31 22.52 -59.94 -35.34 -37.57 33.8 -17.5 -19.44 64.05 -57.62 -55.3 0 0 -26.2 43.35 0 0 -17.7 26.21 0 0 17.7 43.35 0 0 26.2 -18.51 0 -27.69 24.91zm66.91 -85.93l-154.34 0 0 154.33 154.34 0 0 -154.33zm-341.23 136.39l-25.82 0 -10.23 -26.96 -47.49 0 -9.85 26.96 -25.36 0 45.98 -118.43 25.33 0 47.44 118.43zm-43.82 -46.97l-16.46 -43.83 -15.99 43.83 32.45 0zm61.62 -89.42l-154.34 0 0 154.34 154.34 0 0 -154.34zm-125.6 401.26l130.53 0 0 -70.78 159.22 0 0 70.78 130.54 0 0 43.67c-140.1,0 -280.19,0 -420.29,0l0 -43.67zm246.08 -27.11l-71.88 0 0 27.11 71.88 0 0 -27.11zm306.2 -494.68l-684.27 0 0 395.4 684.27 0 0 -395.4z"/></g><text x="0" y="861.66" fill="#000000" font-size="5px" font-weight="bold" font-family="'Helvetica Neue', Helvetica, Arial-Unicode, Arial, Sans-serif">Created by angelina</text><text x="0" y="866.66" fill="#000000" font-size="5px" font-weight="bold" font-family="'Helvetica Neue', Helvetica, Arial-Unicode, Arial, Sans-serif">from the Noun Project</text></svg>