<svg xmlns="http://www.w3.org/2000/svg" viewBox="0 0 64 80" x="0px" y="0px"><g><path d="M30,28a4.00379,4.00379,0,0,1,3.668,2.40039.9997.9997,0,1,0,1.832-.80078A6.0018,6.0018,0,0,0,30,26a1,1,0,0,0,0,2Z"/><path d="M30,38a5.95333,5.95333,0,0,0,4.7998-2.39941,1.00019,1.00019,0,0,0-1.5996-1.20118A3.97,3.97,0,0,1,30,36a1,1,0,0,0,0,2Z"/><path d="M41,7a2.00229,2.00229,0,0,1,2,2,1,1,0,0,0,2,0,4.00427,4.00427,0,0,0-4-4,1,1,0,0,0,0,2Z"/><path d="M19,51a1,1,0,0,0,0,2,2.00229,2.00229,0,0,1,2,2,1,1,0,0,0,2,0A4.00427,4.00427,0,0,0,19,51Z"/><path d="M54,51a3.00328,3.00328,0,0,1,3,3,1,1,0,0,0,2,0,5.00588,5.00588,0,0,0-5-5,1,1,0,0,0,0,2Z"/><path d="M9,28a6.95452,6.95452,0,0,0,4.02-1.27875l8.01892,4.51032C21.01733,31.48547,21,31.7406,21,32a8.97034,8.97034,0,0,0,2.68188,6.4l-4.8031,9.6062a7.01675,7.01675,0,1,0,5.78656,2.899l4.96247-9.92407C29.7522,40.98627,29.87439,41,30,41a8.93018,8.93018,0,0,0,3.95251-.9267l12.552,11.15723a8.00729,8.00729,0,1,0,4.27087-4.546l-12.51349-11.123A8.972,8.972,0,0,0,36.31812,25.6l4.80334-9.6062a7.017,7.017,0,1,0-5.78674-2.89911l-4.96253,9.92413C30.2478,23.01373,30.12561,23,30,23a8.95641,8.95641,0,0,0-6.11328,2.41382l-7.88788-4.43707A6.99944,6.99944,0,1,0,9,28ZM19,60a5,5,0,1,1,5-5A5.00588,5.00588,0,0,1,19,60Zm4.18176-10.60022a6.971,6.971,0,0,0-2.2077-1.11163L25.29065,39.655a8.94071,8.94071,0,0,0,2.26459.99866ZM54,48a6,6,0,1,1-6,6A6.00657,6.00657,0,0,1,54,48Zm-5.01056-.22717a8.06052,8.06052,0,0,0-1.528,1.63275L35.70459,38.955a9.07043,9.07043,0,0,0,1.533-1.62818ZM41,4a5,5,0,1,1-5,5A5.00588,5.00588,0,0,1,41,4ZM36.81824,14.60022a6.97257,6.97257,0,0,0,2.20788,1.11163L34.70935,24.345a8.94071,8.94071,0,0,0-2.26459-.99866ZM30,25a7,7,0,1,1-7,7A7.00818,7.00818,0,0,1,30,25ZM15.68005,23.0921l6.87018,3.86463a8.97282,8.97282,0,0,0-1.08911,2.21765l-6.93127-3.89856A6.98081,6.98081,0,0,0,15.68005,23.0921ZM9,16a5,5,0,1,1-5,5A5.00588,5.00588,0,0,1,9,16Z"/><path d="M9,19a2.00229,2.00229,0,0,1,2,2,1,1,0,0,0,2,0,4.00427,4.00427,0,0,0-4-4,1,1,0,0,0,0,2Z"/></g><text x="0" y="79" fill="#000000" font-size="5px" font-weight="bold" font-family="'Helvetica Neue', Helvetica, Arial-Unicode, Arial, Sans-serif">Created by Smalllike</text><text x="0" y="84" fill="#000000" font-size="5px" font-weight="bold" font-family="'Helvetica Neue', Helvetica, Arial-Unicode, Arial, Sans-serif">from the Noun Project</text></svg>