<?xml version="1.0" encoding="iso-8859-1"?>
<!-- Generator: Adobe Illustrator 16.0.0, SVG Export Plug-In . SVG Version: 6.00 Build 0)  -->
<!DOCTYPE svg PUBLIC "-//W3C//DTD SVG 1.1//EN" "http://www.w3.org/Graphics/SVG/1.1/DTD/svg11.dtd">
<svg version="1.1" id="Capa_1" xmlns="http://www.w3.org/2000/svg" xmlns:xlink="http://www.w3.org/1999/xlink" x="0px" y="0px"
	 width="536.743px" height="536.744px" viewBox="0 0 536.743 536.744" style="enable-background:new 0 0 536.743 536.744;"
	 xml:space="preserve">
<g>
	<g>
		<path d="M266.191,402.419l4.36,0.219c145.455,0,128.004-94.543,266.191-155.638c-81.453,0-167.277-112.895-215.28-112.895
			c-48.004,0-50.911,48.568-50.911,48.568l-0.86,4.188c0,0-6.407-52.747-54.411-52.747C167.277,134.114,81.453,246.56,0,246.56
			C138.188,307.654,120.727,402.419,266.191,402.419z M412.746,249.553c-56.725,13.818-75.276,45.097-142.003,45.097
			c-63.82,0-119.455-45.097-142.003-45.097C128.73,249.553,347.281,252.097,412.746,249.553z"/>
	</g>
</g>
<g>
</g>
<g>
</g>
<g>
</g>
<g>
</g>
<g>
</g>
<g>
</g>
<g>
</g>
<g>
</g>
<g>
</g>
<g>
</g>
<g>
</g>
<g>
</g>
<g>
</g>
<g>
</g>
<g>
</g>
</svg>
