<svg xmlns="http://www.w3.org/2000/svg" xmlns:xlink="http://www.w3.org/1999/xlink" version="1.1" x="0px" y="0px" viewBox="0 0 64 80" style="enable-background:new 0 0 64 64;" xml:space="preserve"><path d="M52.891,36.05c-0.524,0.173-0.81,0.738-0.638,1.263c0.57,1.732,0.815,3.549,0.73,5.397  c-0.344,7.478-6.458,13.739-13.921,14.253c-0.634,0.044-1.281,0.048-1.918,0.014c-2.719-0.151-5.334,0.33-7.781,1.438  c-3.04,1.375-6.42,1.867-9.777,1.427C11.489,58.777,4.98,52.114,4.107,43.998c-0.558-5.192,1.04-10.173,4.498-14.022  C12.017,26.178,16.899,24,22,24c2.515,0,4.951,0.516,7.242,1.532c0.816,0.361,1.654,0.662,2.491,0.895  c0.532,0.147,1.083-0.164,1.23-0.696c0.148-0.532-0.164-1.084-0.696-1.231c-0.742-0.206-1.488-0.474-2.214-0.795  C27.505,22.573,24.796,22,22,22c-5.668,0-11.093,2.42-14.883,6.64C3.274,32.917,1.5,38.447,2.119,44.211  c0.97,9.023,8.206,16.431,17.206,17.612c0.885,0.117,1.772,0.175,2.656,0.175c2.834,0,5.63-0.596,8.207-1.762  c2.15-0.973,4.452-1.392,6.845-1.264c0.724,0.041,1.452,0.035,2.168-0.014c8.459-0.584,15.391-7.681,15.781-16.157  c0.096-2.093-0.183-4.149-0.828-6.114C53.98,36.163,53.417,35.876,52.891,36.05z"/><path d="M25,42c0-4.963-4.038-9-9-9s-9,4.037-9,9s4.038,9,9,9S25,46.963,25,42z M16,49c-3.86,0-7-3.141-7-7s3.14-7,7-7s7,3.141,7,7  S19.86,49,16,49z"/><path d="M16,54c-0.552,0-1,0.447-1,1s0.448,1,1,1h2c0.552,0,1-0.447,1-1s-0.448-1-1-1H16z"/><path d="M29,46h2c0.552,0,1-0.447,1-1s-0.448-1-1-1h-2c-0.552,0-1,0.447-1,1S28.448,46,29,46z"/><path d="M30,30c0-0.553-0.448-1-1-1h-2c-0.552,0-1,0.447-1,1s0.448,1,1,1h2C29.552,31,30,30.553,30,30z"/><path d="M46,43c0.552,0,1-0.447,1-1s-0.448-1-1-1h-2c-0.552,0-1,0.447-1,1s0.448,1,1,1H46z"/><path d="M39,53h2c0.552,0,1-0.447,1-1s-0.448-1-1-1h-2c-0.552,0-1,0.447-1,1S38.448,53,39,53z"/><path d="M44.916,11.104C44.916,11.104,44.916,11.104,44.916,11.104c-0.349,1.01-0.284,2.096,0.184,3.057  c0.467,0.961,1.281,1.683,2.291,2.031c0.428,0.147,0.87,0.222,1.31,0.222c0.598,0,1.193-0.137,1.747-0.405  c0.961-0.468,1.682-1.281,2.031-2.292c0.72-2.083-0.39-4.365-2.475-5.087C47.918,7.914,45.637,9.021,44.916,11.104z M50.587,13.064  c-0.174,0.505-0.535,0.912-1.016,1.146c-0.48,0.234-1.022,0.267-1.528,0.092c-0.505-0.174-0.912-0.535-1.146-1.016  s-0.267-1.023-0.092-1.528v0.001c0.36-1.044,1.5-1.598,2.543-1.238C50.392,10.881,50.948,12.022,50.587,13.064z"/><path d="M58.379,10.578L56.693,10.8l-4.575-5.227l0.464-1.343c0.18-0.521-0.097-1.091-0.619-1.271  c-0.524-0.18-1.091,0.097-1.272,0.619L50.227,4.92l-6.826,1.288l-1.19-1.216c-0.387-0.395-1.021-0.402-1.414-0.016  c-0.395,0.387-0.402,1.02-0.016,1.414l1.132,1.157l-2.084,6.033c-0.117,0.339-0.043,0.715,0.193,0.984l1.894,2.163l-0.404,1.169  l-6.866,2.601c-0.395,0.149-0.653,0.53-0.646,0.951l0.188,11.703c0.009,0.547,0.455,0.984,1,0.984c0.005,0,0.011,0,0.017,0  c0.552-0.009,0.993-0.464,0.984-1.016l-0.177-11.001l4.665-1.767c-0.13,0.47-0.094,0.964,0.122,1.407  c0.234,0.48,0.641,0.841,1.145,1.015l-0.326,0.944c-0.262,0.758-0.213,1.572,0.138,2.293c0.199,0.408,0.488,0.75,0.833,1.025  l-2.672,7.734c-0.18,0.521,0.097,1.091,0.619,1.271c0.108,0.037,0.218,0.055,0.327,0.055c0.415,0,0.802-0.26,0.945-0.674  l2.669-7.726c1.234-0.011,2.388-0.787,2.813-2.019l0.326-0.945l0.001,0c0.215,0.074,0.434,0.109,0.65,0.109  c0.79,0,1.52-0.482,1.835-1.241l2.584,4.278l-6.93,8.545c-0.348,0.429-0.282,1.059,0.147,1.406c0.185,0.15,0.408,0.224,0.629,0.224  c0.291,0,0.58-0.126,0.777-0.37l7.373-9.091c0.265-0.327,0.297-0.786,0.079-1.146l-3.796-6.284l0.404-1.17l2.825-0.533  c0.353-0.066,0.643-0.316,0.76-0.656l2.084-6.032l1.604-0.211c0.548-0.072,0.933-0.574,0.861-1.122  C59.429,10.891,58.919,10.506,58.379,10.578z M45.397,25.024c-0.18,0.521-0.748,0.798-1.271,0.619c0,0,0,0,0,0c0,0,0,0-0.001,0  c-0.252-0.087-0.455-0.268-0.572-0.508c-0.117-0.24-0.133-0.512-0.046-0.765l0.326-0.944l1.891,0.653L45.397,25.024z M47.324,22.517  c-0.001,0-0.001-0.001-0.002-0.001l-1.581-0.546l-3.144-1.087l0.837-2.422l1.899,2.17c0.192,0.22,0.467,0.342,0.752,0.342  c0.062,0,0.124-0.006,0.186-0.018l2.834-0.535l-0.837,2.423L47.324,22.517z M53.251,17.603l-6.791,1.281l-4.551-5.199l1.907-5.52  l6.791-1.281l4.551,5.199L53.251,17.603z"/><text x="0" y="79" fill="#000000" font-size="5px" font-weight="bold" font-family="'Helvetica Neue', Helvetica, Arial-Unicode, Arial, Sans-serif">Created by dDara</text><text x="0" y="84" fill="#000000" font-size="5px" font-weight="bold" font-family="'Helvetica Neue', Helvetica, Arial-Unicode, Arial, Sans-serif">from the Noun Project</text></svg>