<svg xmlns="http://www.w3.org/2000/svg" xmlns:xlink="http://www.w3.org/1999/xlink" version="1.1" x="0px" y="0px" viewBox="0 0 64 80" style="enable-background:new 0 0 64 64;" xml:space="preserve"><g><path d="M60,57c-0.746,0-1.421,0.284-1.946,0.736l-7.325-4.185C50.891,53.06,51,52.545,51,52c0-1.297-0.509-2.469-1.321-3.358   l3.475-4.778C53.424,43.944,53.704,44,54,44c1.654,0,3-1.346,3-3s-1.346-3-3-3s-3,1.346-3,3c0,0.63,0.197,1.214,0.53,1.697   l-3.464,4.763C47.435,47.171,46.739,47,46,47c-2.757,0-5,2.243-5,5c0,0.602,0.124,1.172,0.32,1.706l-6.448,3.968   C34.357,57.259,33.711,57,33,57c-0.232,0-0.455,0.032-0.671,0.082l-2.86-4.495C30.409,51.678,31,50.409,31,49   c0-1.035-0.316-1.997-0.857-2.796l3.781-4.412C34.259,41.922,34.62,42,35,42c1.654,0,3-1.346,3-3s-1.346-3-3-3s-3,1.346-3,3   c0,0.543,0.156,1.046,0.409,1.486l-3.704,4.322C27.924,44.301,26.998,44,26,44c-1.214,0-2.313,0.452-3.181,1.175l-7.387-5.91   C15.783,38.582,16,37.819,16,37c0-0.329-0.036-0.649-0.097-0.96l4.883-2.034C21.335,34.612,22.12,35,23,35c1.654,0,3-1.346,3-3   s-1.346-3-3-3s-3,1.346-3,3c0,0.055,0.013,0.106,0.016,0.16l-4.882,2.033C14.234,32.871,12.717,32,11,32   c-0.073,0-0.142,0.018-0.214,0.022l-1.13-4.523C10.464,26.961,11,26.043,11,25c0-1.654-1.346-3-3-3s-3,1.346-3,3   c0,1.556,1.195,2.824,2.713,2.971l1.134,4.536C7.169,33.315,6,35.017,6,37c0,1.477,0.656,2.793,1.678,3.709l-3.119,5.348   C4.378,46.022,4.191,46,4,46c-1.654,0-3,1.346-3,3s1.346,3,3,3s3-1.346,3-3c0-0.736-0.277-1.403-0.719-1.925l3.126-5.359   C9.911,41.887,10.44,42,11,42c1.214,0,2.313-0.452,3.18-1.174l7.387,5.91c-0.269,0.525-0.443,1.099-0.511,1.71l-3.338,0.303   C17.242,47.72,16.206,47,15,47c-1.654,0-3,1.346-3,3s1.346,3,3,3c1.397,0,2.564-0.964,2.896-2.259l3.34-0.303   c0.212,0.701,0.567,1.334,1.042,1.868l-4.202,4.902C17.741,57.078,17.38,57,17,57c-1.654,0-3,1.346-3,3s1.346,3,3,3s3-1.346,3-3   c0-0.543-0.156-1.046-0.409-1.485l4.289-5.004C24.526,53.816,25.239,54,26,54c0.628,0,1.224-0.129,1.779-0.342l2.867,4.505   C30.247,58.672,30,59.305,30,60c0,1.654,1.346,3,3,3s3-1.346,3-3c0-0.216-0.025-0.426-0.069-0.63l6.434-3.959   C43.278,56.384,44.565,57,46,57c1.493,0,2.82-0.671,3.737-1.713l7.317,4.181C57.023,59.641,57,59.818,57,60c0,1.654,1.346,3,3,3   s3-1.346,3-3S61.654,57,60,57z M23,31c0.552,0,1,0.448,1,1s-0.448,1-1,1s-1-0.448-1-1S22.448,31,23,31z M7,25c0-0.552,0.448-1,1-1   s1,0.448,1,1s-0.448,1-1,1S7,25.552,7,25z M4,50c-0.552,0-1-0.448-1-1s0.448-1,1-1s1,0.448,1,1S4.552,50,4,50z M35,38   c0.552,0,1,0.448,1,1s-0.448,1-1,1s-1-0.448-1-1S34.448,38,35,38z M11,40c-1.654,0-3-1.346-3-3s1.346-3,3-3s3,1.346,3,3   S12.654,40,11,40z M15,51c-0.552,0-1-0.448-1-1s0.448-1,1-1s1,0.448,1,1S15.552,51,15,51z M17,61c-0.552,0-1-0.448-1-1s0.448-1,1-1   s1,0.448,1,1S17.552,61,17,61z M23,49c0-1.654,1.346-3,3-3s3,1.346,3,3s-1.346,3-3,3S23,50.654,23,49z M33,61c-0.552,0-1-0.448-1-1   s0.448-1,1-1s1,0.448,1,1S33.552,61,33,61z M54,40c0.552,0,1,0.448,1,1s-0.448,1-1,1s-1-0.448-1-1S53.448,40,54,40z M46,55   c-1.654,0-3-1.346-3-3s1.346-3,3-3s3,1.346,3,3S47.654,55,46,55z M60,61c-0.552,0-1-0.448-1-1s0.448-1,1-1s1,0.448,1,1   S60.552,61,60,61z"/><path d="M51,1v2h-1.586c-1.316-1.29-3.054-2-4.899-2H30c-1.103,0-2,0.897-2,2c0,0.732,0.212,1.409,0.556,2H26c-1.654,0-3,1.346-3,3   c0,0.771,0.301,1.468,0.78,2c-0.48,0.532-0.78,1.229-0.78,2s0.301,1.468,0.78,2c-0.48,0.532-0.78,1.229-0.78,2s0.301,1.468,0.78,2   c-0.48,0.532-0.78,1.229-0.78,2c0,0.979,0.478,1.842,1.206,2.39C24.078,22.917,24,23.456,24,24c0,1.651,0.599,3.245,1.687,4.488   l6.542,7.477l1.89-3.779L30,23.949v-0.62L30.097,23h9.807L40,23.329v0.62l-4.118,8.236l1.89,3.779l6.542-7.477   C45.401,27.245,46,25.651,46,24c0-0.383-0.043-0.763-0.107-1.14c1.322-0.264,2.542-0.901,3.521-1.86H51v2h12V1H51z M29,21h-3   c-0.552,0-1-0.448-1-1s0.448-1,1-1h4c0.552,0,1,0.448,1,1s-0.448,1-1,1H29z M25,16c0-0.552,0.448-1,1-1h4c0.552,0,1,0.448,1,1   s-0.448,1-1,1h-4C25.448,17,25,16.552,25,16z M25,12c0-0.552,0.448-1,1-1h4c0.552,0,1,0.448,1,1s-0.448,1-1,1h-4   C25.448,13,25,12.552,25,12z M26,7h4c0.552,0,1,0.448,1,1s-0.448,1-1,1h-4c-0.552,0-1-0.448-1-1S25.448,7,26,7z M31.882,32.186   l-0.11,0.221l-4.579-5.234C26.424,26.293,26,25.166,26,24c0-0.338,0.047-0.671,0.117-1h1.921L28,24.422L31.882,32.186z M32.816,21   C32.928,20.686,33,20.352,33,20c0-0.771-0.301-1.468-0.78-2c0.48-0.532,0.78-1.229,0.78-2s-0.301-1.468-0.78-2   c0.48-0.532,0.78-1.229,0.78-2s-0.301-1.468-0.78-2C32.699,9.468,33,8.771,33,8c0-0.352-0.072-0.686-0.184-1h2.187   c0.074,0.02,0.254,0.201,0.321,0.427L39.315,21H32.816z M42.808,27.172l-4.579,5.234l-0.11-0.221L42,24.422v-1.236L37.281,7h1.305   c0.304,0.298,0.632,0.561,0.977,0.795l4.252,14.882C43.938,23.107,44,23.552,44,24C44,25.166,43.576,26.293,42.808,27.172z    M48.586,19l-0.535,0.535c-0.731,0.731-1.659,1.195-2.661,1.373L41.937,8.822C42.44,8.935,42.957,9,43.485,9H46V7h-2.515   c-1.336,0-2.592-0.521-3.536-1.465L39.414,5H32c-1.103,0-2-0.897-2-2h14.515c1.336,0,2.592,0.521,3.536,1.465L48.586,5H51v14   H48.586z M61,21h-4v-2h-2v2h-2V3h2v14h2V3h4V21z"/></g><text x="0" y="79" fill="#000000" font-size="5px" font-weight="bold" font-family="'Helvetica Neue', Helvetica, Arial-Unicode, Arial, Sans-serif">Created by Eucalyp</text><text x="0" y="84" fill="#000000" font-size="5px" font-weight="bold" font-family="'Helvetica Neue', Helvetica, Arial-Unicode, Arial, Sans-serif">from the Noun Project</text></svg>