<?xml version="1.0" encoding="UTF-8"?><svg xmlns="http://www.w3.org/2000/svg" xmlns:xlink="http://www.w3.org/1999/xlink" fill-opacity="1" color-rendering="auto" color-interpolation="auto" text-rendering="auto" stroke="black" stroke-linecap="square" width="322" stroke-miterlimit="10" shape-rendering="auto" stroke-opacity="1" fill="black" stroke-dasharray="none" font-weight="normal" stroke-width="1" height="241" font-family="'Dialog'" font-style="normal" stroke-linejoin="miter" font-size="12px" stroke-dashoffset="0" image-rendering="auto">
  <!--Generated by ySVG 2.6-->
  <defs id="genericDefs"/>
  <g>
    <defs id="defs1">
      <clipPath clipPathUnits="userSpaceOnUse" id="clipPath1">
        <path d="M0 0 L322 0 L322 241 L0 241 L0 0 Z"/>
      </clipPath>
      <clipPath clipPathUnits="userSpaceOnUse" id="clipPath2">
        <path d="M-139 -43 L183 -43 L183 198 L-139 198 L-139 -43 Z"/>
      </clipPath>
    </defs>
    <g fill="white" text-rendering="geometricPrecision" shape-rendering="geometricPrecision" transform="translate(139,43)" stroke="white">
      <rect x="-139" width="322" height="241" y="-43" clip-path="url(#clipPath2)" stroke="none"/>
    </g>
    <g fill="red" text-rendering="geometricPrecision" shape-rendering="geometricPrecision" transform="matrix(1,0,0,1,139,43)" stroke="red">
      <circle r="15" clip-path="url(#clipPath2)" cx="-108.48" cy="12.72" stroke="none"/>
    </g>
    <g text-rendering="geometricPrecision" stroke-miterlimit="1.45" stroke-width="2" shape-rendering="geometricPrecision" transform="matrix(1,0,0,1,139,43)" stroke-linecap="butt">
      <circle fill="none" r="15" clip-path="url(#clipPath2)" cx="-108.48" cy="12.72"/>
    </g>
    <g fill="red" text-rendering="geometricPrecision" shape-rendering="geometricPrecision" transform="matrix(1,0,0,1,139,43)" stroke="red">
      <circle r="15" clip-path="url(#clipPath2)" cx="-108.48" cy="72.72" stroke="none"/>
    </g>
    <g text-rendering="geometricPrecision" stroke-miterlimit="1.45" stroke-width="2" shape-rendering="geometricPrecision" transform="matrix(1,0,0,1,139,43)" stroke-linecap="butt">
      <circle fill="none" r="15" clip-path="url(#clipPath2)" cx="-108.48" cy="72.72"/>
    </g>
    <g fill="red" text-rendering="geometricPrecision" shape-rendering="geometricPrecision" transform="matrix(1,0,0,1,139,43)" stroke="red">
      <circle r="15" clip-path="url(#clipPath2)" cx="-108.48" cy="132.72" stroke="none"/>
    </g>
    <g text-rendering="geometricPrecision" stroke-miterlimit="1.45" stroke-width="2" shape-rendering="geometricPrecision" transform="matrix(1,0,0,1,139,43)" stroke-linecap="butt">
      <circle fill="none" r="15" clip-path="url(#clipPath2)" cx="-108.48" cy="132.72"/>
    </g>
    <g fill="red" text-rendering="geometricPrecision" shape-rendering="geometricPrecision" transform="matrix(1,0,0,1,139,43)" stroke="red">
      <circle r="15" clip-path="url(#clipPath2)" cx="-18.23" cy="-12.28" stroke="none"/>
    </g>
    <g text-rendering="geometricPrecision" stroke-miterlimit="1.45" stroke-width="2" shape-rendering="geometricPrecision" transform="matrix(1,0,0,1,139,43)" stroke-linecap="butt">
      <circle fill="none" r="15" clip-path="url(#clipPath2)" cx="-18.23" cy="-12.28"/>
    </g>
    <g fill="red" text-rendering="geometricPrecision" shape-rendering="geometricPrecision" transform="matrix(1,0,0,1,139,43)" stroke="red">
      <circle r="15" clip-path="url(#clipPath2)" cx="-18.23" cy="47.72" stroke="none"/>
    </g>
    <g text-rendering="geometricPrecision" stroke-miterlimit="1.45" stroke-width="2" shape-rendering="geometricPrecision" transform="matrix(1,0,0,1,139,43)" stroke-linecap="butt">
      <circle fill="none" r="15" clip-path="url(#clipPath2)" cx="-18.23" cy="47.72"/>
    </g>
    <g fill="red" text-rendering="geometricPrecision" shape-rendering="geometricPrecision" transform="matrix(1,0,0,1,139,43)" stroke="red">
      <circle r="15" clip-path="url(#clipPath2)" cx="-18.23" cy="107.72" stroke="none"/>
    </g>
    <g text-rendering="geometricPrecision" stroke-miterlimit="1.45" stroke-width="2" shape-rendering="geometricPrecision" transform="matrix(1,0,0,1,139,43)" stroke-linecap="butt">
      <circle fill="none" r="15" clip-path="url(#clipPath2)" cx="-18.23" cy="107.72"/>
    </g>
    <g fill="red" text-rendering="geometricPrecision" shape-rendering="geometricPrecision" transform="matrix(1,0,0,1,139,43)" stroke="red">
      <circle r="15" clip-path="url(#clipPath2)" cx="-18.23" cy="167.72" stroke="none"/>
    </g>
    <g text-rendering="geometricPrecision" stroke-miterlimit="1.45" stroke-width="2" shape-rendering="geometricPrecision" transform="matrix(1,0,0,1,139,43)" stroke-linecap="butt">
      <circle fill="none" r="15" clip-path="url(#clipPath2)" cx="-18.23" cy="167.72"/>
    </g>
    <g fill="red" text-rendering="geometricPrecision" shape-rendering="geometricPrecision" transform="matrix(1,0,0,1,139,43)" stroke="red">
      <circle r="15" clip-path="url(#clipPath2)" cx="72.02" cy="12.72" stroke="none"/>
    </g>
    <g text-rendering="geometricPrecision" stroke-miterlimit="1.45" stroke-width="2" shape-rendering="geometricPrecision" transform="matrix(1,0,0,1,139,43)" stroke-linecap="butt">
      <circle fill="none" r="15" clip-path="url(#clipPath2)" cx="72.02" cy="12.72"/>
    </g>
    <g fill="red" text-rendering="geometricPrecision" shape-rendering="geometricPrecision" transform="matrix(1,0,0,1,139,43)" stroke="red">
      <circle r="15" clip-path="url(#clipPath2)" cx="72.02" cy="72.72" stroke="none"/>
    </g>
    <g text-rendering="geometricPrecision" stroke-miterlimit="1.45" stroke-width="2" shape-rendering="geometricPrecision" transform="matrix(1,0,0,1,139,43)" stroke-linecap="butt">
      <circle fill="none" r="15" clip-path="url(#clipPath2)" cx="72.02" cy="72.72"/>
    </g>
    <g fill="red" text-rendering="geometricPrecision" shape-rendering="geometricPrecision" transform="matrix(1,0,0,1,139,43)" stroke="red">
      <circle r="15" clip-path="url(#clipPath2)" cx="72.02" cy="132.72" stroke="none"/>
    </g>
    <g text-rendering="geometricPrecision" stroke-miterlimit="1.45" stroke-width="2" shape-rendering="geometricPrecision" transform="matrix(1,0,0,1,139,43)" stroke-linecap="butt">
      <circle fill="none" r="15" clip-path="url(#clipPath2)" cx="72.02" cy="132.72"/>
    </g>
    <g fill="red" text-rendering="geometricPrecision" shape-rendering="geometricPrecision" transform="matrix(1,0,0,1,139,43)" stroke="red">
      <circle r="15" clip-path="url(#clipPath2)" cx="152.32" cy="47.72" stroke="none"/>
    </g>
    <g text-rendering="geometricPrecision" stroke-miterlimit="1.45" stroke-width="2" shape-rendering="geometricPrecision" transform="matrix(1,0,0,1,139,43)" stroke-linecap="butt">
      <circle fill="none" r="15" clip-path="url(#clipPath2)" cx="152.32" cy="47.72"/>
    </g>
    <g fill="red" text-rendering="geometricPrecision" shape-rendering="geometricPrecision" transform="matrix(1,0,0,1,139,43)" stroke="red">
      <circle r="15" clip-path="url(#clipPath2)" cx="152.32" cy="107.72" stroke="none"/>
    </g>
    <g text-rendering="geometricPrecision" stroke-miterlimit="1.45" stroke-width="2" shape-rendering="geometricPrecision" transform="matrix(1,0,0,1,139,43)" stroke-linecap="butt">
      <circle fill="none" r="15" clip-path="url(#clipPath2)" cx="152.32" cy="107.72"/>
      <path fill="none" d="M-111.2298 27.4692 L-110.0197 27.8448 L-108.48 28 L-106.9403 27.8448 L-105.7302 27.4692" stroke-width="1" clip-path="url(#clipPath2)"/>
      <path fill="none" d="M-100.5537 119.9852 L-26.1563 0.4548" stroke-width="3" clip-path="url(#clipPath2)"/>
      <path fill="none" d="M-94.0244 8.7157 L-32.6856 -8.2757" stroke-width="3" clip-path="url(#clipPath2)"/>
      <path fill="none" d="M-29.1494 -1.9958 L-97.5606 62.4358" stroke-width="3" clip-path="url(#clipPath2)"/>
      <path fill="none" d="M-97.5606 122.4358 L-29.1494 58.0042" stroke-width="3" clip-path="url(#clipPath2)"/>
      <path fill="none" d="M-32.6856 51.7243 L-94.0244 68.7157" stroke-width="3" clip-path="url(#clipPath2)"/>
      <path fill="none" d="M-32.2152 42.2964 L-94.4949 18.1436" stroke-width="3" clip-path="url(#clipPath2)"/>
      <path fill="none" d="M-94.0244 128.7157 L-32.6856 111.7243" stroke-width="3" clip-path="url(#clipPath2)"/>
      <path fill="none" d="M-98.1488 23.595 L-28.5612 96.845" stroke-width="3" clip-path="url(#clipPath2)"/>
      <path fill="none" d="M-32.2152 102.2964 L-94.4949 78.1436" stroke-width="3" clip-path="url(#clipPath2)"/>
      <path fill="none" d="M-32.2152 162.2964 L-94.4949 138.1436" stroke-width="3" clip-path="url(#clipPath2)"/>
      <path fill="none" d="M-28.5612 156.845 L-98.1488 83.595" stroke-width="3" clip-path="url(#clipPath2)"/>
      <path fill="none" d="M-25.7777 154.7572 L-100.9323 25.6827" stroke-width="3" clip-path="url(#clipPath2)"/>
      <path fill="none" d="M-3.7744 -8.2757 L57.5644 8.7157" stroke-width="3" clip-path="url(#clipPath2)"/>
      <path fill="none" d="M-4.2448 42.2964 L58.0348 18.1436" stroke-width="3" clip-path="url(#clipPath2)"/>
      <path fill="none" d="M-7.8988 96.845 L61.6888 23.595" stroke-width="3" clip-path="url(#clipPath2)"/>
      <path fill="none" d="M-10.6823 154.7572 L64.4723 25.6827" stroke-width="3" clip-path="url(#clipPath2)"/>
      <path fill="none" d="M-3.7744 51.7243 L57.5644 68.7157" stroke-width="3" clip-path="url(#clipPath2)"/>
      <path fill="none" d="M-4.2448 102.2964 L58.0348 78.1436" stroke-width="3" clip-path="url(#clipPath2)"/>
      <path fill="none" d="M-7.8988 156.845 L61.6888 83.595" stroke-width="3" clip-path="url(#clipPath2)"/>
      <path fill="none" d="M61.1006 62.4358 L-7.3106 -1.9958" stroke-width="3" clip-path="url(#clipPath2)"/>
      <path fill="none" d="M-10.3037 0.4548 L64.0937 119.9852" stroke-width="3" clip-path="url(#clipPath2)"/>
      <path fill="none" d="M-4.2448 162.2964 L58.0348 138.1436" stroke-width="3" clip-path="url(#clipPath2)"/>
      <path fill="none" d="M57.5644 128.7157 L-3.7744 111.7243" stroke-width="3" clip-path="url(#clipPath2)"/>
      <path fill="none" d="M61.1006 122.4358 L-7.3106 58.0042" stroke-width="3" clip-path="url(#clipPath2)"/>
      <path fill="none" d="M85.7706 18.7134 L138.5694 41.7266" stroke-width="3" clip-path="url(#clipPath2)"/>
      <path fill="none" d="M82.3209 121.8162 L142.0191 58.6238" stroke-width="3" clip-path="url(#clipPath2)"/>
      <path fill="none" d="M137.998 52.1789 L86.3419 68.2611" stroke-width="3" clip-path="url(#clipPath2)"/>
      <path fill="none" d="M138.5694 101.7266 L85.7706 78.7134" stroke-width="3" clip-path="url(#clipPath2)"/>
      <path fill="none" d="M142.6368 96.2642 L81.7032 24.1758" stroke-width="3" clip-path="url(#clipPath2)"/>
      <path fill="none" d="M137.998 112.1789 L86.3419 128.2611" stroke-width="3" clip-path="url(#clipPath2)"/>
    </g>
  </g>
</svg>
