<?xml version="1.0" encoding="UTF-8" standalone="no"?>
<!-- Created with Inkscape (http://www.inkscape.org/) -->
<svg
   xmlns:dc="http://purl.org/dc/elements/1.1/"
   xmlns:cc="http://web.resource.org/cc/"
   xmlns:rdf="http://www.w3.org/1999/02/22-rdf-syntax-ns#"
   xmlns:svg="http://www.w3.org/2000/svg"
   xmlns="http://www.w3.org/2000/svg"
   xmlns:sodipodi="http://inkscape.sourceforge.net/DTD/sodipodi-0.dtd"
   xmlns:inkscape="http://www.inkscape.org/namespaces/inkscape"
   width="128.00000px"
   height="128.00000px"
   id="svg2"
   sodipodi:version="0.32"
   inkscape:version="0.42"
   sodipodi:docbase="/home/nicu/Desktop/svg/silhouettes"
   sodipodi:docname="silh61.svg">
  <defs
     id="defs4" />
  <sodipodi:namedview
     id="base"
     pagecolor="#ffffff"
     bordercolor="#666666"
     borderopacity="1.0"
     inkscape:pageopacity="0.0"
     inkscape:pageshadow="2"
     inkscape:zoom="2.8203125"
     inkscape:cx="64.000000"
     inkscape:cy="64.000000"
     inkscape:document-units="px"
     inkscape:current-layer="layer1"
     inkscape:window-width="712"
     inkscape:window-height="512"
     inkscape:window-x="15"
     inkscape:window-y="75" />
  
  <g
     inkscape:label="Layer 1"
     inkscape:groupmode="layer"
     id="layer1">
    <path
       style="fill:#000000"
       d="M 60.888786,125.17976 C 58.145923,125.13853 56.804928,122.46810 57.041262,120.01906 C 56.525293,117.71928 56.677479,115.33526 56.578319,112.98595 C 56.788732,110.62260 58.801100,108.78055 58.169152,106.21279 C 57.851731,102.40990 57.671992,98.563451 58.109996,94.763741 C 58.539547,92.216321 59.485119,89.814401 60.722876,87.558191 C 60.752866,85.511151 60.324552,83.513754 59.471913,81.646610 C 57.982310,77.793798 56.628022,73.888960 54.784387,70.186257 C 53.961344,68.097598 54.326688,65.246174 51.301392,65.188229 C 49.563625,64.996564 47.706364,64.887565 48.185696,62.526347 C 48.064850,59.301232 48.589317,56.091242 48.457790,52.858629 C 48.922846,49.983292 46.154465,48.208389 44.637521,46.164847 C 43.033806,43.930447 41.276713,41.774257 40.004029,39.320334 C 39.559387,36.275588 41.435423,33.577438 42.496598,30.856348 C 43.737845,27.718256 45.529927,24.836377 46.885758,21.758511 C 47.984938,19.940447 49.418814,17.613411 51.835215,17.672944 C 54.148124,17.626599 56.622120,17.728425 58.505751,16.156174 C 60.268658,14.573681 60.850781,12.240638 61.808867,10.188300 C 63.059523,7.2870603 65.442400,4.6056153 68.729048,4.1620953 C 71.214523,3.7647703 73.919460,4.6938483 75.767953,6.3694783 C 76.166084,8.7142273 77.781575,10.300246 78.379132,12.565215 C 78.634004,14.764311 78.145516,17.213394 80.932312,17.896054 C 83.459957,19.615414 86.068339,21.246198 88.432687,23.186678 C 89.915591,25.092144 87.857816,27.891015 85.641147,28.019183 C 82.729498,29.377224 79.598833,30.245436 76.390528,30.532859 C 73.542778,30.095118 74.487298,33.767577 76.214454,34.606553 C 78.621753,36.767855 73.877044,33.315770 73.846441,33.344094 C 73.819748,34.671610 73.460393,35.854806 73.019521,33.885923 C 71.880504,31.622866 73.423651,37.102358 72.464337,35.865040 C 72.282730,34.732248 71.056584,32.302036 71.107471,34.862109 C 71.239927,35.681951 72.559411,38.331565 71.039090,36.460255 C 70.324625,34.859881 70.673369,33.001392 70.519297,31.276946 C 67.822927,30.994048 69.305726,33.591959 69.711749,35.005675 C 70.321573,37.559075 67.145029,39.045565 67.395358,41.335333 C 68.717438,43.014162 70.620027,44.348747 71.771821,46.354196 C 74.265688,49.757604 74.835025,54.008055 75.922954,57.966718 C 75.771057,59.488100 79.286726,61.025634 76.312667,61.060807 C 74.604154,62.192099 75.202702,65.137833 74.114527,66.959239 C 73.327191,70.936430 72.144347,74.824729 70.916823,78.684179 C 70.093587,81.462907 69.049977,84.265001 69.156678,87.221381 C 69.119577,91.375951 68.534209,95.505861 67.458802,99.514921 C 66.865639,102.11717 65.894891,104.65807 65.937184,107.38691 C 65.712960,109.89229 66.183742,112.39087 67.133507,114.70150 C 67.886687,116.75657 66.707797,119.67727 64.103966,118.85204 C 61.599884,118.27071 62.983294,121.65851 64.401245,122.24930 C 65.885166,123.96027 64.518452,125.75134 62.427302,125.21358 C 61.914639,125.21341 61.400090,125.22381 60.888786,125.17976 z M 48.446215,42.382670 C 48.462297,40.126277 49.509784,38.066617 48.981616,35.821493 C 48.768810,34.801480 49.482231,31.545348 48.426116,31.871713 C 47.739291,34.206300 45.437773,36.014578 45.528129,38.546932 C 46.397622,40.234443 47.735687,41.653017 48.308401,43.519004 C 48.492393,43.166971 48.402107,42.758019 48.446215,42.382670 z M 74.259199,31.626032 C 74.354027,30.201083 72.155238,30.873614 73.624269,31.872520 C 74.029792,32.488562 74.488430,32.387788 74.259199,31.626032 z M 80.367587,23.966341 C 79.221616,22.358935 77.644673,21.138050 76.234369,19.786787 C 75.009380,19.609434 74.935273,22.318282 74.033054,23.249061 C 74.158811,24.997605 77.674655,23.688591 79.109969,24.048235 C 79.528479,24.023007 79.953847,24.045289 80.367587,23.966341 z M 78.256401,15.663092 C 78.716967,13.566146 76.436363,16.952665 78.139054,16.077928 L 78.256392,15.663092 L 78.256401,15.663092 z M 77.731434,14.795406 C 78.634047,13.653696 76.493853,10.308541 76.970002,13.179274 C 77.098372,13.546591 76.906392,16.185682 77.731434,14.795406 z "
       id="path1345" />
  </g>

  <metadata>
    <rdf:RDF 
     xmlns="http://web.resource.org/cc/"
     xmlns:dc="http://purl.org/dc/elements/1.1/"
     xmlns:rdf="http://www.w3.org/1999/02/22-rdf-syntax-ns#">
      <Work rdf:about="">
        <dc:title>woman silhouette</dc:title>
        <dc:description></dc:description>
        <dc:subject>
          <rdf:Bag>
            <rdf:li>people</rdf:li>
            <rdf:li> woman</rdf:li>
            <rdf:li> silhouette</rdf:li>
          </rdf:Bag>
        </dc:subject>
        <dc:publisher>
           <Agent>
             <dc:title></dc:title>
           </Agent>
         </dc:publisher>
         <dc:creator>
           <Agent>
             <dc:title>Nicu Buculei</dc:title>
           </Agent>
        </dc:creator>
         <dc:rights>
           <Agent>
             <dc:title>Nicu Buculei</dc:title>
           </Agent>
        </dc:rights>
        <dc:date></dc:date>
        <dc:format>image/svg+xml</dc:format>
        <dc:type rdf:resource="http://purl.org/dc/dcmitype/StillImage" />
        <license rdf:resource="http://web.resource.org/cc/PublicDomain" />
        <dc:language>en</dc:language>
      </Work>

      <License rdf:about="http://web.resource.org/cc/PublicDomain">
         <permits rdf:resource="http://web.resource.org/cc/Reproduction" />
         <permits rdf:resource="http://web.resource.org/cc/Distribution" />
         <permits rdf:resource="http://web.resource.org/cc/DerivativeWorks" />
      </License>

    </rdf:RDF>
  </metadata>
</svg>
