<?xml version="1.0" encoding="UTF-8" standalone="no"?>
<svg
   xmlns:dc="http://purl.org/dc/elements/1.1/"
   xmlns:cc="http://creativecommons.org/ns#"
   xmlns:rdf="http://www.w3.org/1999/02/22-rdf-syntax-ns#"
   xmlns:svg="http://www.w3.org/2000/svg"
   xmlns="http://www.w3.org/2000/svg"
   xmlns:sodipodi="http://sodipodi.sourceforge.net/DTD/sodipodi-0.dtd"
   xmlns:inkscape="http://www.inkscape.org/namespaces/inkscape"
   width="210mm"
   height="297mm"
   viewBox="0 0 210 297"
   version="1.1"
   id="svg23395"
   inkscape:version="1.0.2 (1.0.2+r75+1)"
   sodipodi:docname="thumb-up.svg">
  <defs
     id="defs23389" />
  <sodipodi:namedview
     id="base"
     pagecolor="#ffffff"
     bordercolor="#666666"
     borderopacity="1.0"
     inkscape:pageopacity="0.0"
     inkscape:pageshadow="2"
     inkscape:zoom="1.1934537"
     inkscape:cx="400"
     inkscape:cy="560"
     inkscape:document-units="mm"
     inkscape:current-layer="layer1"
     inkscape:document-rotation="0"
     showgrid="false"
     inkscape:window-width="1920"
     inkscape:window-height="1055"
     inkscape:window-x="0"
     inkscape:window-y="0"
     inkscape:window-maximized="1" />
  <metadata
     id="metadata23392">
    <rdf:RDF>
      <cc:Work
         rdf:about="">
        <dc:format>image/svg+xml</dc:format>
        <dc:type
           rdf:resource="http://purl.org/dc/dcmitype/StillImage" />
        <dc:title></dc:title>
      </cc:Work>
    </rdf:RDF>
  </metadata>
  <g
     inkscape:label="Layer 1"
     inkscape:groupmode="layer"
     id="layer1">
    <g
       id="g23369"
       transform="translate(-84.50726,-118.78995)">
      <path
         style="stroke-width:0.476249"
         d="m 174.9689,239.42123 a 0.95250001,0.95250001 0 0 1 0.95251,-0.95251 h 2.95273 v 0 a 0.1143,0.1143 0 0 0 0.10008,-0.0571 0.1143,0.1143 0 0 0 0,-0.11898 10.529887,10.529887 0 0 1 -0.79057,-2.49079 l -0.0666,-0.28099 a 1.42875,1.42875 0 0 1 0.2286,-1.16205 1.42875,1.42875 0 0 1 1.00488,-0.58579 l 0.85725,-0.0666 v 0.20956 a 6.829425,6.829425 0 0 0 1.08585,2.93846 13.763625,13.763625 0 0 0 1.77167,1.68592 0.59054999,0.59054999 0 0 1 0.59531,-0.54769 h 1.66688 a 0.59531251,0.59531251 0 0 1 0.59531,0.59531 v 5.47688 a 0.59531251,0.59531251 0 0 1 -0.59531,0.59532 h -1.66688 a 0.59531251,0.59531251 0 0 1 -0.59531,-0.59532 v -0.0905 a 4.0624124,4.0624124 0 0 1 -2.3146,0.6858 h -3.40042 a 0.95250001,0.95250001 0 0 1 -0.79058,-1.48115 0.95250001,0.95250001 0 0 1 -0.47624,-1.42875 0.95250001,0.95250001 0 0 1 -0.47624,-1.42875 0.95250001,0.95250001 0 0 1 -0.63818,-0.9001 z"
         id="Thumbs_Up" />
      <path
         style="fill:#e9ddaf;stroke-width:0.476249"
         d="m 175.92141,239.89747 h 0.71436 v 0.47626 h -0.23812 a 0.47625003,0.47625003 0 1 0 0,0.95249 h 0.71437 v 0.47626 h -0.23813 a 0.47625003,0.47625003 0 1 0 0,0.95249 h 0.71439 v 0.47626 h -0.23812 a 0.47625003,0.47625003 0 1 0 0,0.95249 h 3.40041 a 3.4813876,3.4813876 0 0 0 2.31459,-0.81437 v -4.21958 a 15.90675,15.90675 0 0 1 -2.12885,-2.00025 6.9056249,6.9056249 0 0 1 -1.15252,-2.96705 l -0.38577,0.0382 a 0.95250001,0.95250001 0 0 0 -0.66674,0.39053 0.95250001,0.95250001 0 0 0 -0.15246,0.77628 l 0.0666,0.28575 a 10.2108,10.2108 0 0 0 0.7477,2.38126 0.59054999,0.59054999 0 0 1 0,0.59054 0.5715,0.5715 0 0 1 -0.50958,0.27623 h -2.96228 a 0.47625003,0.47625003 0 0 0 0,0.95249 z"
         id="path23340" />
      <path
         style="fill:#80b3ff;stroke-width:0.476249"
         d="m 183.5414,244.06467 a 0.11906249,0.11906249 0 0 0 0.11898,0.11898 h 1.66687 a 0.11906249,0.11906249 0 0 0 0.11898,-0.11898 v -5.47688 a 0.11906249,0.11906249 0 0 0 -0.11898,-0.11898 h -1.66687 a 0.11906249,0.11906249 0 0 0 -0.11898,0.11898 z"
         id="path23338" />
    </g>
  </g>
</svg>
