<?xml version="1.0" encoding="UTF-8" standalone="no"?> <svg id="Layer_1" data-name="Layer 1" xmlns="http://www.w3.org/2000/svg" viewBox="0 0 25 25"><title>Thumbs Up</title><path id="Thumbs_Up" data-name="Thumbs Up" d="M24,13a2,2,0,0,0-2-2l-6.2,0h0a.24.24,0,0,1-.21-.12.24.24,0,0,1,0-.25A22.11,22.11,0,0,0,17.25,5.4l.14-.59a3,3,0,0,0-.48-2.44A3,3,0,0,0,14.8,1.14L13,1l0,.44a14.34,14.34,0,0,1-2.28,6.17A28.9,28.9,0,0,1,7,11.15,1.24,1.24,0,0,0,5.75,10H2.25A1.25,1.25,0,0,0,1,11.25v11.5A1.25,1.25,0,0,0,2.25,24h3.5A1.25,1.25,0,0,0,7,22.75v-.19A8.53,8.53,0,0,0,11.86,24H19a2,2,0,0,0,1.66-3.11,2,2,0,0,0,1-3,2,2,0,0,0,1-3A2,2,0,0,0,24,13ZM6,22.75a.25.25,0,0,1-.25.25H2.25A.25.25,0,0,1,2,22.75V11.25A.25.25,0,0,1,2.25,11h3.5a.25.25,0,0,1,.25.25ZM22,14h-1.5v1H21a1,1,0,1,1,0,2h-1.5v1H20a1,1,0,1,1,0,2h-1.5v1H19a1,1,0,1,1,0,2H11.86A7.31,7.31,0,0,1,7,21.29V12.43a33.4,33.4,0,0,0,4.47-4.2A14.5,14.5,0,0,0,13.89,2l.81.08a2,2,0,0,1,1.4.82,2,2,0,0,1,.32,1.63l-.14.6a21.44,21.44,0,0,1-1.57,5,1.24,1.24,0,0,0,0,1.24,1.2,1.2,0,0,0,1.07.58H22a1,1,0,0,1,0,2Z" fill="#0e1d25"/></svg>