<?xml version="1.0" encoding="UTF-8" standalone="no"?>
<!-- Created with Inkscape (http://www.inkscape.org/) -->

<svg
   width="210mm"
   height="297mm"
   viewBox="0 0 210 297"
   version="1.1"
   id="svg1"
   xml:space="preserve"
   inkscape:version="1.3.2 (1:1.3.2+202311252150+091e20ef0f)"
   sodipodi:docname="DAO-principles.svg"
   xmlns:inkscape="http://www.inkscape.org/namespaces/inkscape"
   xmlns:sodipodi="http://sodipodi.sourceforge.net/DTD/sodipodi-0.dtd"
   xmlns:xlink="http://www.w3.org/1999/xlink"
   xmlns="http://www.w3.org/2000/svg"
   xmlns:svg="http://www.w3.org/2000/svg"><sodipodi:namedview
     id="namedview1"
     pagecolor="#ffffff"
     bordercolor="#cccccc"
     borderopacity="1"
     inkscape:showpageshadow="0"
     inkscape:pageopacity="1"
     inkscape:pagecheckerboard="0"
     inkscape:deskcolor="#d1d1d1"
     inkscape:document-units="mm"
     inkscape:zoom="2"
     inkscape:cx="464"
     inkscape:cy="617"
     inkscape:window-width="1920"
     inkscape:window-height="1055"
     inkscape:window-x="0"
     inkscape:window-y="0"
     inkscape:window-maximized="1"
     inkscape:current-layer="layer1" /><defs
     id="defs1"><linearGradient
       id="linearGradient26"
       inkscape:collect="always"><stop
         style="stop-color:#96ff96;stop-opacity:0.5;"
         offset="0"
         id="stop25" /><stop
         style="stop-color:#ffffff;stop-opacity:0;"
         offset="1"
         id="stop26" /></linearGradient><linearGradient
       id="linearGradient24"
       inkscape:collect="always"><stop
         style="stop-color:#ff9696;stop-opacity:0.5;"
         offset="0"
         id="stop23" /><stop
         style="stop-color:#ffffff;stop-opacity:0;"
         offset="1"
         id="stop24" /></linearGradient><linearGradient
       id="linearGradient21"
       inkscape:collect="always"><stop
         style="stop-color:#9696ff;stop-opacity:0.5;"
         offset="0"
         id="stop20" /><stop
         style="stop-color:#ffffff;stop-opacity:0;"
         offset="1"
         id="stop21" /></linearGradient><linearGradient
       id="linearGradient16"
       inkscape:collect="always"><stop
         style="stop-color:#969696;stop-opacity:0.5;"
         offset="0"
         id="stop16" /><stop
         style="stop-color:#ffffff;stop-opacity:0;"
         offset="1"
         id="stop17" /></linearGradient><linearGradient
       inkscape:collect="always"
       xlink:href="#linearGradient21"
       id="linearGradient17"
       x1="102.76412"
       y1="185.47198"
       x2="102.76865"
       y2="130.53447"
       gradientUnits="userSpaceOnUse" /><linearGradient
       inkscape:collect="always"
       xlink:href="#linearGradient16"
       id="linearGradient18"
       gradientUnits="userSpaceOnUse"
       x1="102.76412"
       y1="185.47198"
       x2="98.746918"
       y2="126.01887"
       gradientTransform="matrix(-1,0,0,1,225.28718,0.2528763)" /><linearGradient
       inkscape:collect="always"
       xlink:href="#linearGradient24"
       id="linearGradient19"
       gradientUnits="userSpaceOnUse"
       x1="102.76412"
       y1="185.47198"
       x2="105.82114"
       y2="135.1516"
       gradientTransform="matrix(1,0,0,-1,0.51623297,377.06314)" /><linearGradient
       inkscape:collect="always"
       xlink:href="#linearGradient26"
       id="linearGradient20"
       gradientUnits="userSpaceOnUse"
       x1="102.76412"
       y1="185.47198"
       x2="100.1554"
       y2="113.40915"
       gradientTransform="rotate(180,110.65917,188.53154)" /></defs><g
     inkscape:label="Layer 1"
     inkscape:groupmode="layer"
     id="layer1"><path
       id="rect16"
       style="fill:url(#linearGradient17);stroke:none;stroke-width:0.264583;stroke-linecap:round;stroke-linejoin:round"
       d="m 38.1,168.98485 v -32.97731 h 46.653723 l 21.923867,43.97415 0.034,4.23428 -14.034439,0.0335 z"
       sodipodi:nodetypes="ccccccc"
       inkscape:export-filename="DAO-principles.png"
       inkscape:export-xdpi="192"
       inkscape:export-ydpi="192" /><path
       id="rect16-1"
       style="fill:url(#linearGradient18);stroke:none;stroke-width:0.264583;stroke-linecap:round;stroke-linejoin:round"
       d="m 195.64091,165.63016 v -29.62262 h -61.31622 l -14.73579,42.93939 v 6.85178 h 17.70228 z"
       sodipodi:nodetypes="ccccccc" /><path
       id="rect16-6"
       style="fill:url(#linearGradient19);stroke:none;stroke-width:0.264583;stroke-linecap:round;stroke-linejoin:round"
       d="m 38.1,210.95045 v 26.65196 H 83.340969 L 106.8133,197.66282 v -5.33414 H 92.507634 Z"
       sodipodi:nodetypes="ccccccc" /><path
       id="rect16-3"
       style="fill:url(#linearGradient20);stroke:none;stroke-width:0.264583;stroke-linecap:round;stroke-linejoin:round"
       d="m 195.64091,209.94954 v 27.65287 l -76.58735,-0.1823 -3.83812,-39.26575 v -6.1175 h 36.01971 z"
       sodipodi:nodetypes="ccccccc" /><path
       class="st0"
       d="m 51.459028,223.90144 -11.377082,-6.985 c 0,0 -1.772709,-1.53459 0.529166,-3.36021 l 10.609786,-4.25979 11.535834,6.50875 -10.292294,5.47687 c 0,0 -1.42875,0.58208 -1.00541,2.61938 z m 4.947707,-6.50875 -6.006044,-3.6248 2.778127,-1.27 -0.97896,-0.52916 -2.725207,1.16416 -1.45521,-0.87312 -1.4552,0.52917 1.5875,0.97895 -3.254379,1.4023 1.111249,0.58208 3.01625,-1.32292 6.085417,3.62479 z m -3.360207,6.6675 0.9525,-0.52917 -1.05834,-0.76729 1.42875,-0.74084 1.03188,0.71438 6.588114,-3.65125 c 0,0 -0.687907,-1.93146 0.52917,-2.77813 0,0 -1.269997,2.19605 0.635,2.56646 l -7.302494,4.15396 1.587497,1.08479 -1.11125,0.10584 -0.158747,0.84666 -1.71979,-1.24354 -1.05833,0.58208 c 0,0 -1.05834,0.3175 -1.7198,-0.37041 0,0.0265 0.635,0.23812 1.37584,0.0265 z"
       id="path1"
       style="stroke-width:0.264583" /><text
       x="111.77638"
       y="88.633141"
       fill="#000000"
       font-size="1.32292px"
       font-weight="bold"
       font-family="'Helvetica Neue', Helvetica, Arial-Unicode, Arial, Sans-serif"
       id="text2"
       style="font-style:normal;font-variant:normal;font-weight:normal;font-stretch:normal;font-size:1.41111px;font-family:'Arbeit Regular', Helvetica, Arial-Unicode, Arial, Sans-serif;-inkscape-font-specification:'Arbeit Regular, Helvetica, Arial-Unicode, Arial, Sans-serif, ';font-variant-ligatures:normal;font-variant-caps:normal;font-variant-numeric:normal;font-variant-east-asian:normal;stroke-width:0.264583" /><text
       x="45.223877"
       y="231.31319"
       fill="#000000"
       font-size="1.32292px"
       font-weight="bold"
       font-family="'Helvetica Neue', Helvetica, Arial-Unicode, Arial, Sans-serif"
       id="text2-0"
       style="font-style:normal;font-variant:normal;font-weight:normal;font-stretch:normal;font-size:4.93889px;font-family:'Arbeit Regular', Helvetica, Arial-Unicode, Arial, Sans-serif;-inkscape-font-specification:'Arbeit Regular, Helvetica, Arial-Unicode, Arial, Sans-serif, Normal';font-variant-ligatures:normal;font-variant-caps:normal;font-variant-numeric:normal;font-variant-east-asian:normal;stroke-width:0.264583">Truth</text><text
       x="68.109734"
       y="231.40523"
       fill="#000000"
       font-size="1.32292px"
       font-weight="bold"
       font-family="'Helvetica Neue', Helvetica, Arial-Unicode, Arial, Sans-serif"
       id="text2-0-5"
       style="font-style:normal;font-variant:normal;font-weight:normal;font-stretch:normal;font-size:4.93889px;font-family:'Arbeit Regular', Helvetica, Arial-Unicode, Arial, Sans-serif;-inkscape-font-specification:'Arbeit Regular, Helvetica, Arial-Unicode, Arial, Sans-serif, Normal';font-variant-ligatures:normal;font-variant-caps:normal;font-variant-numeric:normal;font-variant-east-asian:normal;stroke-width:0.264583">Science</text><text
       x="48.786716"
       y="162.24171"
       fill="#000000"
       font-size="1.32292px"
       font-weight="bold"
       font-family="'Helvetica Neue', Helvetica, Arial-Unicode, Arial, Sans-serif"
       id="text2-0-4"
       style="font-style:normal;font-variant:normal;font-weight:normal;font-stretch:normal;font-size:4.93889px;line-height:1;font-family:'Arbeit Regular', Helvetica, Arial-Unicode, Arial, Sans-serif;-inkscape-font-specification:'Arbeit Regular, Helvetica, Arial-Unicode, Arial, Sans-serif, Normal';font-variant-ligatures:normal;font-variant-caps:normal;font-variant-numeric:normal;font-variant-east-asian:normal;stroke-width:0.264583"><tspan
         sodipodi:role="line"
         id="tspan10"
         x="48.786716"
         y="162.24171"
         style="line-height:1;text-align:center;text-anchor:middle">Free</tspan><tspan
         sodipodi:role="line"
         x="48.786716"
         y="167.1806"
         style="line-height:1;text-align:center;text-anchor:middle"
         id="tspan14">Speech</tspan></text><text
       x="78.174225"
       y="162.11816"
       fill="#000000"
       font-size="1.32292px"
       font-weight="bold"
       font-family="'Helvetica Neue', Helvetica, Arial-Unicode, Arial, Sans-serif"
       id="text2-0-6"
       style="font-style:normal;font-variant:normal;font-weight:normal;font-stretch:normal;font-size:4.93889px;line-height:1;font-family:'Arbeit Regular', Helvetica, Arial-Unicode, Arial, Sans-serif;-inkscape-font-specification:'Arbeit Regular, Helvetica, Arial-Unicode, Arial, Sans-serif, Normal';font-variant-ligatures:normal;font-variant-caps:normal;font-variant-numeric:normal;font-variant-east-asian:normal;stroke-width:0.264583"><tspan
         sodipodi:role="line"
         id="tspan11"
         x="78.174225"
         y="162.11816"
         style="line-height:1;text-align:center;text-anchor:middle">Free</tspan><tspan
         sodipodi:role="line"
         id="tspan12"
         x="78.174225"
         y="167.05705"
         style="line-height:1;text-align:center;text-anchor:middle">Competition</tspan></text><path
       d="m 85.245166,215.46128 c 0,0.17441 -0.10542,0.33254 -0.26666,0.3992 -0.162,0.0674 -0.34727,0.0302 -0.47129,-0.093 -0.12402,-0.12325 -0.161224,-0.30928 -0.0953,-0.47051 0.0667,-0.16201 0.22401,-0.26744 0.39843,-0.26821 0.23951,0 0.4333,0.19301 0.43485,0.43253 z m 1.48596,-6.45695 v -7.5e-4 c 0.17519,0 0.33254,-0.10542 0.39998,-0.26666 0.0667,-0.16201 0.0295,-0.34804 -0.0938,-0.4713 -0.12403,-0.12402 -0.31006,-0.16122 -0.47129,-0.0938 -0.16201,0.0667 -0.26744,0.22479 -0.26744,0.39919 7.5e-4,0.23874 0.19379,0.43176 0.43254,0.43253 z m -6.484934,1.35108 c 7.5e-4,-0.17519 -0.10388,-0.33332 -0.26587,-0.40152 -0.16123,-0.0674 -0.34804,-0.031 -0.47207,0.093 -0.12402,0.12325 -0.16122,0.30928 -0.0946,0.47129 0.0667,0.162 0.22479,0.26743 0.39997,0.26743 0.11472,7.5e-4 0.22479,-0.0442 0.30542,-0.1248 0.0814,-0.0814 0.12711,-0.19069 0.12711,-0.30541 z m 7.342184,1.70067 c 0.68291,0.79375 0.96274,1.51231 0.67904,2.00461 -0.28371,0.49223 -1.0573,0.59532 -2.06812,0.39688 v -7.5e-4 c -0.27208,-0.0519 -0.54106,-0.1186 -0.80538,-0.19843 -0.0418,0.18681 -0.0876,0.36508 -0.13875,0.53407 h -7.5e-4 c -0.10465,-0.0697 -0.22402,-0.11317 -0.34881,-0.12868 0.0472,-0.16432 0.093,-0.3395 0.13332,-0.52167 l -7.5e-4,-7.5e-4 c -0.42787,-0.1496 -0.847234,-0.324 -1.255734,-0.52167 -0.40928,0.19998 -0.82864,0.37594 -1.25805,0.52788 0.0589,0.26821 0.13254,0.53331 0.22014,0.79375 0.28371,0.82787 0.65268,1.33946 1.03793,1.33946 0.18061,-0.0139 0.34726,-0.10232 0.46043,-0.24418 0.0876,0.0907 0.196114,0.15813 0.315484,0.19843 -0.18294,0.24883 -0.467424,0.40386 -0.775934,0.42246 -0.56121,0 -1.05188,-0.60926 -1.38906,-1.5875 -0.0891,-0.26045 -0.16356,-0.52477 -0.22402,-0.79375 -0.2651,0.0806 -0.53408,0.14728 -0.80615,0.19844 -1.01777,0.19843 -1.78594,0.0775 -2.0697,-0.4085 -0.28371,-0.48602 0,-1.21466 0.68058,-1.99827 0.18293,-0.20929 0.37671,-0.40773 0.58136,-0.59532 -0.1403,-0.13254 -0.27285,-0.26121 -0.39688,-0.38679 0.11395,-0.0574 0.21161,-0.14108 0.28603,-0.24417 0.11937,0.1248 0.24805,0.25191 0.3868,0.37905 0.34571,-0.29533 0.7077,-0.57128 1.08364,-0.82786 0.0326,-0.45347 0.0907,-0.90537 0.17441,-1.35263 -0.26045,-0.0822 -0.52554,-0.14805 -0.79375,-0.19844 -0.85112,-0.18293 -1.48052,-0.11937 -1.67896,0.21394 -0.0806,0.16432 -0.0891,0.35502 -0.0217,0.52554 -0.12015,0.0326 -0.23178,0.0922 -0.32556,0.17518 -0.12712,-0.28835 -0.11628,-0.61934 0.0279,-0.89916 0.29146,-0.48214 1.05729,-0.59531 2.06573,-0.39687 0.27208,0.052 0.54106,0.11782 0.80615,0.19843 0.0605,-0.26821 0.13565,-0.53329 0.22402,-0.79375 0.33718,-0.98211 0.82786,-1.5875 1.38906,-1.5875 0.5612,0 1.051884,0.60695 1.389074,1.5875 0.0915,0.26046 0.16975,0.52554 0.23409,0.79375 0.18294,-0.0558 0.36122,-0.10542 0.53175,-0.14495 -0.009,0.12868 0.0124,0.25735 0.0635,0.37517 -0.16666,0.0395 -0.34108,0.0876 -0.52013,0.14495 0.0837,0.44726 0.14185,0.89916 0.17518,1.3534 0.37672,0.25504 0.73873,0.53176 1.08522,0.82709 0.20308,-0.18836 0.39687,-0.38679 0.57904,-0.59531 0.57361,-0.65887 0.83328,-1.23404 0.63873,-1.56734 h 7.5e-4 c -0.10155,-0.15038 -0.26123,-0.25037 -0.44107,-0.27595 0.0325,-0.12015 0.0356,-0.24727 0.01,-0.36897 0.30774,0.0333 0.58369,0.20231 0.75422,0.46043 0.27984,0.48602 0,1.21466 -0.6829,1.99608 -0.18216,0.2093 -0.37594,0.40851 -0.58136,0.59532 0.20076,0.18836 0.39146,0.38757 0.56973,0.59763 z m -6.474824,-0.59531 c 0.23797,0.19843 0.49842,0.39687 0.77826,0.59531 -0.017,-0.39688 -0.017,-0.79917 0,-1.20613 -0.27827,0.20775 -0.53872,0.41006 -0.7767,0.61236 z m 0.97824,2.42847 c -0.0837,-0.44803 -0.14185,-0.90072 -0.17441,-1.35495 -0.37361,-0.25503 -0.73251,-0.5302 -1.0759,-0.82397 -0.20309,0.18836 -0.39611,0.38679 -0.5775,0.59531 -0.57515,0.66042 -0.83328,1.23636 -0.64105,1.56969 0.19224,0.33331 0.81933,0.39687 1.67664,0.22788 v 7.5e-4 c 0.26821,-0.0574 0.5333,-0.1279 0.79375,-0.21239 z m 3.023794,-4.7369 c -0.29379,0.10542 -0.59531,0.22789 -0.913134,0.3713 0.357354,0.18681 0.706164,0.39687 1.045674,0.59531 -0.031,-0.33332 -0.0767,-0.66663 -0.13255,-0.96661 z m -2.591394,-0.36665 c 0.42866,0.15193 0.84878,0.3271 1.25805,0.52554 0.40928,-0.19844 0.829414,-0.37362 1.258064,-0.52554 -0.0581,-0.26898 -0.13178,-0.53408 -0.22015,-0.79375 -0.28371,-0.82786 -0.652684,-1.33714 -1.037934,-1.33714 -0.38525,-7.5e-4 -0.75809,0.50541 -1.03793,1.33327 -0.0876,0.26122 -0.16122,0.52788 -0.22014,0.79762 z m -0.19844,1.34177 c 0.34108,-0.21625 0.68677,-0.41469 1.04566,-0.59531 -0.31315,-0.14263 -0.61934,-0.26587 -0.91312,-0.3713 -0.0651,0.29147 -0.11085,0.62476 -0.14263,0.96584 z m 1.03561,3.27184 c -0.35735,-0.18681 -0.70617,-0.38525 -1.04567,-0.59531 0.0318,0.34339 0.0775,0.66895 0.13332,0.97669 0.29302,-0.11395 0.59918,-0.23874 0.91236,-0.38138 z m 1.887484,-0.59531 c -0.34108,0.21626 -0.68678,0.41703 -1.045684,0.59531 0.313164,0.14263 0.619354,0.26821 0.913144,0.37285 0.055,-0.30774 0.10077,-0.63485 0.13255,-0.97592 z m 0.0379,-2.20305 h -7.5e-4 c -0.48292,-0.31937 -0.985204,-0.60849 -1.503784,-0.86662 -0.51858,0.25813 -1.02087,0.54725 -1.50456,0.86662 -0.0333,0.57826 -0.0333,1.15806 0,1.73632 0.48369,0.32014 0.986,0.61004 1.50456,0.86972 0.5178,-0.25968 1.020094,-0.5488 1.503784,-0.86739 0.0341,-0.58137 0.0341,-1.16505 0,-1.74642 z m 0.38524,0.26586 c 0.0186,0.39687 0.0186,0.79917 0,1.20612 0.27984,-0.19843 0.53951,-0.39687 0.77825,-0.59531 -0.23951,-0.21782 -0.49918,-0.42013 -0.77902,-0.61857 z m 1.63943,1.44099 h -7.5e-4 c -0.18293,-0.20851 -0.37671,-0.40695 -0.57981,-0.59531 -0.34572,0.29534 -0.70848,0.57051 -1.08522,0.82554 -0.0333,0.45425 -0.0915,0.90692 -0.17518,1.35495 0.26122,0.0798 0.52632,0.14651 0.79375,0.19844 0.85112,0.16665 1.47666,0.10542 1.67509,-0.22634 0.19844,-0.33099 -0.0558,-0.9046 -0.62865,-1.56502 z m -3.529204,-1.6929 c -0.34263,0 -0.65191,0.20619 -0.7829,0.52322 -0.131,0.31627 -0.059,0.68135 0.18371,0.92319 0.24263,0.24262 0.60694,0.3147 0.92319,0.1837 0.317044,-0.13099 0.523224,-0.44028 0.523224,-0.78289 0,-0.46742 -0.379064,-0.84723 -0.847234,-0.84723 z m -7.61961,-1.36116 c 0.33409,0 0.63639,-0.20154 0.7643,-0.51082 0.1279,-0.30929 0.0574,-0.66509 -0.17983,-0.90151 -0.23642,-0.23719 -0.59222,-0.30773 -0.90151,-0.17983 -0.30928,0.1279 -0.51081,0.43021 -0.51081,0.7643 0,0.22015 0.0868,0.43021 0.24263,0.58523 0.15503,0.15581 0.36508,0.24263 0.58523,0.24263 z m -1.40456,1.27821 h -7.5e-4 c 0.19766,0 0.37594,-0.11937 0.45113,-0.3023 0.076,-0.18294 0.0333,-0.39378 -0.10698,-0.53253 -0.14107,-0.13952 -0.35113,-0.18061 -0.53407,-0.10309 -0.18216,0.0767 -0.29998,0.25581 -0.29843,0.45347 0.004,0.26587 0.22247,0.47905 0.48834,0.47827 z m 6.32837,11.90625 h -7.5e-4 c 0.24728,0.43253 0.24573,0.96429 -0.004,1.39605 -0.2496,0.43098 -0.71003,0.69762 -1.20844,0.69917 h -8.33438 c -0.50073,-7.5e-4 -0.96274,-0.26821 -1.21233,-0.70072 -0.25037,-0.43331 -0.25115,-0.96661 -0.002,-1.40069 l 3.42066,-5.93527 c 0.0248,-0.0411 0.0434,-0.0853 0.0558,-0.131 0.0124,-0.0457 0.0186,-0.093 0.0178,-0.14108 v -3.65879 c -0.14495,-0.0488 -0.24417,-0.18293 -0.24804,-0.33563 v -0.50773 c 10e-4,-0.20153 0.16433,-0.36353 0.36508,-0.36353 h 3.53239 c 0.0969,-7.5e-4 0.18991,0.0379 0.25813,0.10542 0.0682,0.0683 0.10697,0.16123 0.10697,0.25813 v 0.50772 c -7.5e-4,0.15503 -0.0992,0.29301 -0.24573,0.34339 v 3.65086 c -7.5e-4,0.0472 0.004,0.0946 0.0155,0.14107 0.0139,0.0457 0.0326,0.0899 0.0558,0.13101 z m -0.32169,0.18681 -3.42761,-5.94142 c -0.0829,-0.13875 -0.12557,-0.29765 -0.12325,-0.45888 v -3.63935 h -3.02379 v 3.63935 c 0,0.0806 -0.01,0.16045 -0.0302,0.23796 -0.0209,0.0775 -0.0519,0.15193 -0.093,0.22092 l -3.42701,5.93527 c -0.18448,0.31626 -0.18448,0.70693 0,1.02397 0.1775,0.32556 0.52167,0.52555 0.89297,0.51781 h 8.33437 c 0.36743,0 0.70694,-0.19611 0.89065,-0.51392 0.18371,-0.31779 0.18371,-0.71002 0,-1.02784 z m -0.38292,0.22014 -7.5e-4,-7.5e-4 c 0.1,0.18294 0.0977,0.40386 -0.006,0.58369 -0.10387,0.17983 -0.29379,0.29301 -0.50151,0.29765 h -8.33438 c -0.20774,-0.005 -0.39688,-0.11859 -0.49996,-0.29843 -0.10387,-0.17983 -0.1062,-0.40074 -0.006,-0.58291 l 2.04787,-3.5673 0.11472,0.0395 c 0.39378,0.14573 0.81157,0.21316 1.23092,0.19844 0.35735,-0.0302 0.71081,-0.093 1.0573,-0.18681 0.39068,-0.1 0.78911,-0.16666 1.19063,-0.19844 0.54261,-0.024 1.08521,0.0365 1.6092,0.17906 l 0.0612,0.0155 z m -6.44763,-0.3519 c 7.5e-4,-0.13953 -0.0829,-0.26587 -0.21239,-0.32014 -0.12868,-0.0543 -0.2775,-0.0248 -0.37672,0.0737 -0.0992,0.0984 -0.12867,0.24727 -0.076,0.37672 0.0535,0.12867 0.17984,0.21315 0.31937,0.21315 0.18991,0 0.34417,-0.15348 0.34571,-0.34339 z m 2.29592,-1.04956 c 0,-0.24882 -0.15038,-0.47284 -0.37983,-0.56819 -0.23023,-0.0953 -0.49454,-0.0426 -0.6705,0.13333 -0.17596,0.17596 -0.22866,0.4403 -0.13333,0.6705 0.0953,0.22943 0.31937,0.37983 0.56819,0.37983 0.33951,0 0.61548,-0.27595 0.61548,-0.61547 z m 1.5596,0.64724 c 0,-0.1775 -0.10697,-0.33718 -0.2713,-0.4054 -0.16356,-0.0682 -0.35191,-0.0302 -0.47748,0.0953 -0.12558,0.1248 -0.16278,0.31393 -0.0953,0.47748 0.0683,0.16433 0.22789,0.27053 0.40541,0.27053 0.24185,0 0.43872,-0.19611 0.43872,-0.43795 z"
       fill-rule="evenodd"
       id="path1-2"
       style="stroke-width:0.198437" /><text
       x="44.894447"
       y="95.545471"
       font-size="1.32292px"
       font-weight="bold"
       font-family="'Arbeit Regular', Helvetica, Arial-Unicode, Arial, Sans-serif"
       fill="#000000"
       id="text1-9"
       style="font-style:normal;font-variant:normal;font-weight:normal;font-stretch:normal;font-size:4.23333px;font-family:'Arbeit Regular', Helvetica, Arial-Unicode, Arial, Sans-serif;-inkscape-font-specification:'Arbeit Regular, Helvetica, Arial-Unicode, Arial, Sans-serif, Normal';font-variant-ligatures:normal;font-variant-caps:normal;font-variant-numeric:normal;font-variant-east-asian:normal;white-space:pre;inline-size:150.161;stroke-width:0.264583"
       transform="translate(-4.8453847,22.219658)"
       xml:space="preserve"><tspan
         x="44.894447"
         y="95.545471"
         id="tspan1">Icons are from the Noun Project created by (clockwise from top left) Luis Prado, </tspan><tspan
         x="44.894447"
         y="100.83713"
         id="tspan2">Shape'Br, WEBTECHOPS LLP, ranukumbolo lab, FBianchi, Hanbai, gravisio, </tspan><tspan
         x="44.894447"
         y="106.1288"
         id="tspan3">Future 365, Thomas Deckert</tspan></text><path
       d="m 82.279402,140.86013 0.49371,0.22146 c 0.0754,0.0337 0.0718,0.1393 -10e-4,0.17105 l -0.49848,0.21709 -0.22145,0.49491 c -0.0337,0.0742 -0.13851,0.071 -0.16986,-0.001 l -0.21829,-0.49847 -0.49371,-0.22146 c -0.0754,-0.0337 -0.0718,-0.1393 0.001,-0.17105 l 0.49848,-0.21828 0.22145,-0.49372 c 0.0337,-0.0754 0.13851,-0.071 0.16987,0.001 z m -3.60998,-0.36552 0.49371,0.22146 c 0.0754,0.0337 0.071,0.1397 -0.001,0.17105 l -0.49847,0.21709 -0.22146,0.49371 c -0.0337,0.0754 -0.1397,0.0718 -0.17105,0 l -0.21709,-0.49847 -0.49371,-0.22146 c -0.0754,-0.0337 -0.0718,-0.1397 0,-0.17105 l 0.49847,-0.21828 0.22146,-0.49371 c 0.0337,-0.0754 0.1397,-0.071 0.17105,0.001 z m -3.61116,0.36552 0.49371,0.22146 c 0.0754,0.0337 0.0718,0.1393 0,0.17105 l -0.49848,0.21709 -0.22145,0.49491 c -0.0337,0.0742 -0.13931,0.071 -0.17106,-0.001 l -0.21828,-0.49847 -0.49371,-0.22146 c -0.0754,-0.0337 -0.0718,-0.1393 10e-4,-0.17105 l 0.49847,-0.21828 0.22146,-0.49372 c 0.0337,-0.0754 0.1393,-0.071 0.17105,0.001 z m 6.19402,6.7818 c -1.59543,-1.59623 -4.18385,-1.59623 -5.78008,0 -1.59623,1.59623 -1.59623,4.18386 0,5.78009 1.59623,1.59623 4.18504,1.59623 5.78008,0 1.59663,-1.59623 1.59663,-4.18386 0,-5.78009 z m -0.81319,0.79971 c -1.15412,-1.15412 -3.02617,-1.15412 -4.18068,0 -1.15412,1.15411 -1.15412,3.02617 0,4.18068 1.15411,1.15411 3.02617,1.15411 4.18068,0 1.1553,-1.15451 1.1553,-3.02657 0,-4.18068 z m -2.09034,-1.18348 c 1.80776,0 3.27382,1.46605 3.27382,3.27382 0,1.80776 -1.46606,3.27382 -3.27382,3.27382 -1.80777,0 -3.27383,-1.46606 -3.27383,-3.27382 0,-1.80777 1.46606,-3.27382 3.27383,-3.27382 z m -0.15875,2.88091 v -0.97195 c -0.46474,0.0913 -0.65127,0.5469 -0.30837,0.82908 0.0833,0.0687 0.1893,0.11946 0.30837,0.14287 z m 0.3175,0.3433 v 1.41843 c 0.70524,-0.098 1.00568,-0.78859 0.49609,-1.20729 -0.13057,-0.10756 -0.30281,-0.18415 -0.49609,-0.21114 z m -0.3175,-2.01136 c 0,-0.20797 0.3171,-0.20797 0.3171,0 v 0.37465 c 0.42426,0.0595 0.80208,0.37345 0.80208,0.80645 0,0.20915 -0.3171,0.20915 -0.3171,0 0,-0.25519 -0.23614,-0.43657 -0.48498,-0.48499 v 0.99656 c 1.01362,0.11231 1.43193,1.1676 0.69731,1.77204 -0.18574,0.15201 -0.42743,0.25519 -0.69731,0.28575 v 0.37108 c 0,0.20796 -0.3171,0.20796 -0.3171,0 v -0.37108 c -0.55682,-0.0619 -1.0676,-0.46355 -1.0676,-1.02949 0,-0.20796 0.31711,-0.20796 0.31711,0 0,0.38815 0.36909,0.65603 0.75049,0.70882 v -1.44105 c -0.7751,-0.11153 -1.07673,-0.92909 -0.5084,-1.39621 0.13613,-0.11231 0.31274,-0.19129 0.5084,-0.21828 z m -7.07827,-3.27621 c -0.0742,1.01481 0.67945,1.56726 1.57044,1.84627 0.70405,-1.143 1.75061,-2.06217 2.98132,-2.60549 0.1901,-0.0845 0.31829,0.20598 0.127,0.29012 -1.19697,0.52863 -2.21297,1.43113 -2.88211,2.55151 -1.48828,2.49515 -1.09458,5.68444 0.96282,7.74223 2.47968,2.47968 6.50042,2.47968 8.9797,0 1.593054,-1.59305 2.246714,-3.94414 1.631154,-6.17855 -0.501654,-1.82364 -1.813324,-3.34803 -3.551634,-4.11519 -0.19011,-0.0845 -0.0631,-0.37465 0.12819,-0.29012 1.23071,0.54332 2.27687,1.46249 2.98132,2.60549 0.890994,-0.27901 1.644654,-0.83146 1.570444,-1.84627 -0.30361,0.18772 -0.66953,0.34886 -1.1049,0.49292 -0.198044,0.0651 -0.298064,-0.23614 -0.0988,-0.30162 1.30492,-0.4322 2.09827,-1.02275 2.04311,-2.48285 -0.41751,0.42743 -0.96203,0.75485 -1.54226,0.98306 -0.19447,0.0754 -0.31035,-0.21948 -0.11588,-0.29607 1.56051,-0.61198 2.65707,-1.9439 1.89547,-3.63022 -0.83264,2.21496 -4.660904,2.92259 -6.744494,3.82826 -0.67271,0.29369 -0.66953,1.3073 0.15637,1.56368 1.05171,0.32743 2.05422,1.09895 2.69557,1.98795 1.56726,2.17369 1.32199,5.16136 -0.57031,7.05366 -2.1328,2.13281 -5.59356,2.13281 -7.72636,0 -1.8923,-1.8923 -2.13876,-4.88037 -0.57031,-7.05366 0.64135,-0.8886 1.64346,-1.66052 2.69557,-1.98795 0.82471,-0.25638 0.82908,-1.26999 0.15637,-1.56368 -2.08359,-0.90567 -5.91185,-1.6133 -6.74449,-3.82826 -0.77272,1.71014 0.36433,3.02736 1.89547,3.63022 0.19447,0.0766 0.0778,0.37107 -0.11588,0.29607 -0.58182,-0.22821 -1.12633,-0.55563 -1.54226,-0.98306 -0.0226,0.59293 0.0865,1.05767 0.35004,1.42994 0.3183,0.45005 0.86956,0.78065 1.69307,1.05291 0.19804,0.0651 0.0988,0.36671 -0.0988,0.30162 -0.43577,-0.14406 -0.80129,-0.3048 -1.1049,-0.49292 z"
       id="path1-7"
       style="stroke-width:0.0396874" /><text
       x="111.77638"
       y="95.239998"
       fill="#000000"
       font-size="1.32292px"
       font-weight="bold"
       font-family="'Helvetica Neue', Helvetica, Arial-Unicode, Arial, Sans-serif"
       id="text1-0"
       style="font-style:normal;font-variant:normal;font-weight:normal;font-stretch:normal;font-size:1.41111px;font-family:'Arbeit Regular', Helvetica, Arial-Unicode, Arial, Sans-serif;-inkscape-font-specification:'Arbeit Regular, Helvetica, Arial-Unicode, Arial, Sans-serif, ';font-variant-ligatures:normal;font-variant-caps:normal;font-variant-numeric:normal;font-variant-east-asian:normal;stroke-width:0.264583" /><g
       id="g3"
       transform="matrix(0.1984375,0,0,0.1984375,111.4061,87.220305)"><path
         d="m -329.225,294.331 c -6.652,-3.938 -8.843,-12.515 -4.912,-19.152 3.938,-6.647 12.51,-8.846 19.161,-4.908 6.637,3.934 8.836,12.51 4.898,19.157 -3.931,6.638 -12.51,8.836 -19.147,4.903 z"
         id="path1-3" /><g
         id="g2"><path
           d="m -267.697,278.607 c -10.849,3.094 -35.101,3.848 -35.101,3.848 v 10.121 c 0,0 24.649,0.603 35.101,3.848 9.477,2.941 21.103,11.538 21.103,11.538 V 267.07 c -0.001,-10e-4 -11.562,8.816 -21.103,11.537 z"
           id="path2" /></g><path
         d="m -280.006,298.812 c -3.406,-1.494 -7.369,0.061 -8.858,3.467 l -7.431,16.984 c 0,0 -21.845,-17.526 -22.724,-18.144 -3.205,-2.519 -9.819,-3.579 -14.725,-0.088 -11.99,8.954 -13.108,32.15 -9.444,47.956 h 39.273 l -4.94,-18.064 -13.126,-9.309 c -0.536,-0.381 -1.105,-1.231 -0.501,-2.066 0.482,-0.668 1.507,-0.597 2.041,-0.223 l 23.04,16.278 c 1.113,0.746 2.407,1.159 3.733,1.159 0.53,0 1.066,-0.062 1.593,-0.19 2.039,-0.498 3.729,-1.918 4.569,-3.84 l 10.965,-25.063 c 1.489,-3.403 -0.062,-7.369 -3.465,-8.857 z"
         id="path3" /></g><g
       id="g27"
       transform="translate(-8.5500419,1.6674209)"><text
         x="127.72561"
         y="231.74905"
         fill="#000000"
         font-size="1.32292px"
         font-weight="bold"
         font-family="'Helvetica Neue', Helvetica, Arial-Unicode, Arial, Sans-serif"
         id="text2-0-56"
         style="font-style:normal;font-variant:normal;font-weight:normal;font-stretch:normal;font-size:4.93889px;font-family:'Arbeit Regular', Helvetica, Arial-Unicode, Arial, Sans-serif;-inkscape-font-specification:'Arbeit Regular, Helvetica, Arial-Unicode, Arial, Sans-serif, Normal';font-variant-ligatures:normal;font-variant-caps:normal;font-variant-numeric:normal;font-variant-east-asian:normal;stroke-width:0.264583">Democracy</text><path
         class="st0"
         d="m 148.65536,212.89106 c -0.65621,0.0629 -0.91381,-0.40868 -1.75444,-0.40868 -0.15028,0 -0.30631,0.0128 -0.46716,0.0434 v -0.95529 c 0.41687,-0.12959 0.72439,0.0518 1.05992,0.27585 0.28527,0.19157 0.60873,0.40869 1.11021,0.46488 0.35369,0.0409 0.69034,0.005 0.99717,-0.10728 -0.30484,0.43423 -0.60925,0.65645 -0.9457,0.68711 z m -1.96068,3.58108 c 0.10725,0 0.19795,0.0919 0.19795,0.19924 v 1.27969 c 0,0.10727 -0.0907,0.19667 -0.19806,0.19667 -0.10728,0 -0.19777,-0.0894 -0.19784,-0.19667 v -1.28225 c 7e-5,-0.10473 0.0906,-0.19668 0.19795,-0.19668 z m 1.00214,0.27842 c 0.10726,0 0.19796,0.0894 0.19796,0.19668 v 1.00383 c 0,0.10727 -0.0907,0.19667 -0.19796,0.19667 -0.10725,0 -0.19796,-0.0894 -0.19796,-0.19667 v -1.00383 c 0,-0.10728 0.0907,-0.19668 0.19796,-0.19668 z m 0.13021,2.90676 c 0.0475,-0.0485 0.0678,-0.0971 0.0678,-0.16348 v -0.76628 c -0.24155,0.068 -0.51093,-5.5e-4 -0.69903,-0.1507 -0.2947,0.23509 -0.70782,0.23503 -1.00226,0 -0.11255,0.0919 -0.24964,0.1507 -0.39958,0.17113 0.43192,0.32951 0.59526,0.83525 0.69712,1.35376 0.0322,0.16348 -0.0747,0.3244 -0.23907,0.35505 -0.16481,0.0366 -0.3241,-0.0762 -0.3559,-0.23755 -0.14785,-0.7535 -0.37105,-1.0498 -0.88471,-1.18007 -0.13368,-0.0332 -0.22759,-0.15325 -0.22859,-0.29119 l -0.003,-0.37547 c -9e-4,-0.16724 0.13707,-0.30651 0.30312,-0.30651 h 0.55785 c 0.13748,0 0.24942,-0.10985 0.24942,-0.24776 0,-0.13794 -0.11194,-0.25033 -0.24942,-0.25033 h -0.89929 c -0.1298,0 -0.27458,0.0383 -0.3636,0.32439 -0.11504,0.37038 -0.0688,1.17497 0.0868,1.51469 0.0744,0.16092 0.19596,0.3065 0.39409,0.47254 0.19438,0.16092 0.30143,0.3908 0.30143,0.64367 v 3.70879 c 0.73775,0.26565 1.432,0.58748 2.06618,0.95786 v -4.58492 c 0,-0.22734 0.0849,-0.43166 0.24543,-0.59258 l 0.35502,-0.35504 z m -9.39341,3.7471 v -4.01019 c 0,-0.29886 -0.12652,-0.5696 -0.3564,-0.76119 -0.26511,-0.22221 -0.42855,-0.41889 -0.52993,-0.63855 -0.21063,-0.45722 -0.27109,-1.50702 -0.11563,-2.00766 0.1319,-0.42401 0.36339,-0.47765 0.55027,-0.47765 h 1.15611 c 0.22459,0 0.40727,0.18391 0.40737,0.40868 0,0.22478 -0.18278,0.40614 -0.40737,0.40614 h -0.71709 c -0.16899,0 -0.30438,0.13827 -0.30324,0.3065 l 0.004,0.48021 c 9e-4,0.13793 0.095,0.25799 0.22858,0.29119 0.78715,0.19922 1.02949,0.71263 1.20122,1.58619 0.0319,0.16143 0.19131,0.27426 0.35589,0.23755 0.16434,-0.0307 0.27129,-0.19157 0.23907,-0.35504 -0.14538,-0.74074 -0.39033,-1.46104 -1.11958,-1.85441 0.31043,0.0544 0.59742,-0.028 0.82204,-0.23498 0.36609,0.33706 0.9225,0.33708 1.28861,0 0.26497,0.24399 0.64321,0.32098 0.9854,0.18901 v 1.10089 c 0,0.10983 -0.0357,0.19413 -0.11257,0.27075 l -0.45637,0.45722 c -0.18978,0.18901 -0.29014,0.43167 -0.29014,0.69987 v 3.90036 c -0.96541,-0.0804 -1.86466,-0.0776 -2.82984,0.005 z m -6.11837,-3.52488 c -0.19807,-0.16604 -0.31959,-0.31162 -0.39413,-0.47254 -0.15545,-0.33972 -0.20175,-1.14431 -0.0867,-1.51469 0.089,-0.28608 0.23378,-0.32439 0.36359,-0.32439 h 0.89929 c 0.13748,0 0.24933,0.11239 0.24933,0.25033 h 1e-4 c 0,0.13791 -0.11195,0.24776 -0.24954,0.24776 h -0.55775 c -0.16606,0 -0.30433,0.13935 -0.30313,0.30651 l 0.003,0.37547 c 9e-4,0.13794 0.095,0.25799 0.22868,0.29119 0.51355,0.13027 0.73686,0.42657 0.88473,1.18007 0.0318,0.16131 0.19105,0.27419 0.3559,0.23755 0.16432,-0.0306 0.27129,-0.19157 0.23896,-0.35505 -0.10176,-0.51851 -0.26522,-1.02425 -0.69704,-1.35376 0.14997,-0.0204 0.28706,-0.0792 0.3996,-0.17113 0.29445,0.23506 0.7078,0.23505 1.00226,0 0.18807,0.15015 0.45746,0.21876 0.69902,0.1507 v 0.76628 c 0,0.0664 -0.0203,0.11494 -0.0679,0.16348 l -0.35502,0.35504 c -0.16054,0.16092 -0.24534,0.36524 -0.24534,0.59258 v 3.5913 c -0.73643,0.26053 -1.43039,0.57726 -2.06626,0.93997 v -4.613 c 0,-0.25287 -0.10696,-0.48275 -0.30142,-0.64367 z m -0.16874,-3.4074 c 0.10727,0 0.19797,0.0919 0.19797,0.19924 v 0.29118 c -0.14764,0 -0.24923,-0.005 -0.39592,0.0281 v -0.31927 c 0,-0.10729 0.0907,-0.19924 0.19795,-0.19924 z m 1.00226,0 c 0.10737,0 0.19796,0.0911 0.19796,0.19924 v 0.32694 c -0.1462,-0.0426 -0.24835,-0.0357 -0.39592,-0.0357 v -0.29119 c 0,-0.10728 0.0906,-0.19924 0.19796,-0.19924 z m 1.13176,-4.93484 c 0.57378,0.0693 0.88046,0.6716 1.77972,0.77394 0.35359,0.0409 0.69024,0.005 0.99716,-0.10728 -0.30483,0.43423 -0.60925,0.65645 -0.94569,0.6871 -0.66007,0.0617 -0.91322,-0.40868 -1.75445,-0.40868 -0.15028,0 -0.30632,0.0128 -0.46716,0.0434 v -0.95529 c 0.1315,-0.0409 0.26051,-0.051 0.39042,-0.0332 z m -0.12961,4.93484 c -0.10727,0 -0.19784,0.0919 -0.19784,0.19668 v 1.28225 c 0,0.10727 0.0906,0.19667 0.19784,0.19667 0.10737,0 0.19797,-0.0894 0.19797,-0.19667 v -1.27969 c 0,-0.10729 -0.0906,-0.19924 -0.19797,-0.19924 z m 1.00225,0.27842 c -0.10724,0 -0.19795,0.0894 -0.19795,0.19668 v 1.00383 c 0,0.10727 0.0907,0.19667 0.19795,0.19667 0.10725,0 0.19796,-0.0894 0.19796,-0.19667 v -1.00383 c 0,-0.10728 -0.0907,-0.19668 -0.19796,-0.19668 z m 2.76249,-2.65133 c 0.18817,0 0.34126,0.15325 0.34126,0.34226 v 0.46233 c -0.24188,0 -0.45382,-0.0155 -0.68228,0.0689 v -0.53129 c 0,-0.18901 0.15295,-0.34227 0.34102,-0.34227 z m 1.28864,0 c 0.18806,0 0.34111,0.15325 0.34111,0.34226 v 0.54662 c -0.23827,-0.10247 -0.43096,-0.0842 -0.68216,-0.0842 v -0.46233 c 0,-0.18901 0.15295,-0.34226 0.34105,-0.34226 z m 0.93618,-4.84799 c 0.24286,-0.0868 0.48013,-0.11496 0.72069,-0.0843 0.8892,0.11342 1.30792,0.97708 2.58061,1.12388 0.65631,0.0766 1.26984,-0.0409 1.79824,-0.34228 -0.0125,0.023 -0.0253,0.0434 -0.0383,0.0639 -0.53878,0.89145 -1.07518,1.33333 -1.68812,1.39209 -1.18102,0.11404 -1.55739,-0.90844 -3.37312,-0.49809 z m 0.35242,4.84799 c -0.18818,0 -0.34116,0.15325 -0.34116,0.34226 v 1.64496 c 0,0.18901 0.15298,0.34227 0.34116,0.34227 0.18806,0 0.34113,-0.15326 0.34113,-0.34227 v -1.64496 c 0,-0.18901 -0.15307,-0.34226 -0.34113,-0.34226 z m 1.28849,0.3576 c -0.18807,0 -0.34112,0.15325 -0.34112,0.34227 v 1.28735 c 0,0.18901 0.15305,0.34227 0.34112,0.34227 0.18808,0 0.34115,-0.15326 0.34115,-0.34227 v -1.28735 c 0,-0.18902 -0.15307,-0.34227 -0.34115,-0.34227 z m 2.90878,2.01531 c 0.10726,0 0.19796,0.0919 0.19796,0.19924 v 0.29118 c -0.14763,0 -0.24926,-0.005 -0.39592,0.0281 v -0.31927 c 0,-0.10729 0.0907,-0.19924 0.19796,-0.19924 z m 1.00224,0 c 0.10736,0 0.19795,0.0911 0.19795,0.19924 v 0.32694 c -0.14624,-0.0426 -0.24831,-0.0357 -0.3959,-0.0357 v -0.29119 c 0,-0.10728 0.0907,-0.19924 0.19795,-0.19924 z m 4.84744,-5.50444 c -0.12593,-0.0689 -0.28179,-0.0383 -0.37439,0.0689 -0.40694,0.47443 -0.82253,0.7501 -1.49205,0.67178 -0.72749,-0.0851 -0.99815,-0.67471 -1.77191,-0.77395 -0.30112,-0.0383 -0.60434,0.0128 -0.90128,0.15582 -0.10556,0.0485 -0.17281,0.15581 -0.17281,0.27329 v 4.5134 c -0.24204,-0.0282 -0.44396,0.0127 -0.63606,0.16603 -0.52515,-0.4192 -1.30547,-0.0446 -1.30547,0.62835 v 0.82503 c -0.0332,0.0664 -0.0626,0.13792 -0.0868,0.21711 -0.15913,0.51085 -0.10228,1.47381 0.11483,1.94635 0.11417,0.24777 0.28589,0.45976 0.55676,0.68455 0.0568,0.0485 0.0833,0.10471 0.0833,0.17879 v 3.50446 c -0.85349,-0.26309 -1.75736,-0.4521 -2.68429,-0.5645 v -3.96422 c 0,-0.10728 0.0357,-0.19412 0.11255,-0.27075 l 0.45636,-0.45722 c 0.18989,-0.18901 0.29017,-0.43167 0.29017,-0.69987 v -3.27201 c 0,-0.7384 -0.80203,-1.17659 -1.41294,-0.82502 -0.23318,-0.40871 -0.72736,-0.58982 -1.17545,-0.41126 v -2.03319 c 0.34752,-0.0894 0.67369,-0.12771 0.97172,-0.10727 0.8437,0.0558 1.37821,0.70214 2.45858,0.58492 1.07748,-0.10217 1.74299,-1.00637 2.14988,-1.68071 0.25303,-0.4189 0.45408,-0.88121 0.59755,-1.3793 0.0901,-0.31018 -0.31282,-0.52628 -0.52212,-0.28097 -0.61684,0.72297 -1.27028,1.14018 -2.28476,1.02427 -1.08582,-0.12406 -1.49292,-0.98793 -2.57284,-1.12644 -0.41057,-0.0511 -0.82496,0.0204 -1.23153,0.21456 -0.10558,0.0485 -0.17281,0.1558 -0.17281,0.27331 v 4.50062 c -0.33824,-0.12609 -0.71427,-0.0452 -0.97412,0.19412 -0.6082,-0.56002 -1.59174,-0.12913 -1.59174,0.69475 v 1.08558 c -0.0449,0.0843 -0.0837,0.17879 -0.11554,0.28097 -0.19953,0.64112 -0.12829,1.84929 0.1438,2.44187 0.14096,0.30396 0.3546,0.56705 0.69253,0.84802 0.093,0.0792 0.13818,0.17369 0.13818,0.2963 v 4.07405 c -0.87454,0.10983 -1.72842,0.28863 -2.538,0.53129 v -3.39462 c 0,-0.0664 0.0203,-0.1175 0.0678,-0.16347 l 0.35513,-0.35505 c 0.16042,-0.16092 0.24533,-0.36526 0.24533,-0.59259 v -2.5466 c 0,-0.5873 -0.61191,-0.97811 -1.14163,-0.72797 -0.2011,-0.29782 -0.57943,-0.42783 -0.92572,-0.30907 v -2.76627 c 0.20336,-0.046 0.3941,-0.0639 0.56943,-0.0536 0.54532,0.0339 0.93387,0.488 1.70937,0.40357 1.09636,-0.11086 1.75335,-1.40818 1.97505,-2.17624 0.0899,-0.312 -0.31289,-0.52522 -0.52223,-0.28097 -0.40668,0.47448 -0.82254,0.75008 -1.49195,0.67178 -0.72748,-0.085 -0.99815,-0.6747 -1.77193,-0.77395 -0.30112,-0.0383 -0.60434,0.0128 -0.90128,0.15582 -0.10556,0.0485 -0.17281,0.15581 -0.17281,0.27329 v 4.5134 c -0.242,-0.0281 -0.44409,0.0127 -0.63606,0.16603 -0.52567,-0.4193 -1.30548,-0.0444 -1.30548,0.62835 v 0.82503 c -0.0333,0.0664 -0.0626,0.13793 -0.0868,0.21711 -0.15905,0.51085 -0.10218,1.47381 0.11494,1.94636 0.11415,0.24776 0.28586,0.45975 0.55675,0.68454 0.0568,0.0485 0.0833,0.10471 0.0833,0.17879 v 4.98338 c -0.44501,0.29374 -0.85507,0.61303 -1.22226,0.95273 -0.12303,0.1124 -0.1306,0.30397 -0.017,0.42657 0.11355,0.12516 0.30532,0.13283 0.42834,0.0179 2.004,-1.85184 5.24694,-2.95529 8.67473,-2.95529 3.42781,0 6.67062,1.10345 8.67473,2.95529 0.12392,0.11429 0.31242,0.10915 0.42835,-0.0179 0.11363,-0.1226 0.10605,-0.31417 -0.0169,-0.42657 -0.34095,-0.31673 -0.71901,-0.61302 -1.12748,-0.88887 v -4.9655 c 0,-0.0664 0.0203,-0.1175 0.0678,-0.16347 l 0.35512,-0.35505 c 0.16053,-0.16092 0.24533,-0.36526 0.24533,-0.59259 v -2.5466 c 0,-0.5873 -0.61192,-0.97811 -1.14162,-0.72797 -0.20113,-0.29782 -0.57945,-0.42783 -0.92573,-0.30906 v -2.76628 c 0.20335,-0.046 0.3941,-0.0639 0.56942,-0.0536 0.54534,0.0339 0.93389,0.488 1.70937,0.40357 1.09623,-0.11084 1.75356,-1.40832 1.97506,-2.17624 0.0397,-0.13792 -0.0219,-0.28352 -0.14776,-0.34993 z"
         id="path1-1"
         style="stroke-width:0.238125" /></g><g
       id="g26"
       transform="translate(16.034005,2.5618107)"><text
         x="162.54347"
         y="230.89995"
         fill="#000000"
         font-size="1.32292px"
         font-weight="bold"
         font-family="'Helvetica Neue', Helvetica, Arial-Unicode, Arial, Sans-serif"
         id="text2-0-2"
         style="font-style:normal;font-variant:normal;font-weight:normal;font-stretch:normal;font-size:4.93889px;font-family:'Arbeit Regular', Helvetica, Arial-Unicode, Arial, Sans-serif;-inkscape-font-specification:'Arbeit Regular, Helvetica, Arial-Unicode, Arial, Sans-serif, Normal';font-variant-ligatures:normal;font-variant-caps:normal;font-variant-numeric:normal;font-variant-east-asian:normal;stroke-width:0.264583">Voting</text><g
         id="g8"
         transform="translate(-0.04780262,44.616629)"><polygon
           points="78.4,66.2 71.9,66.2 68.3,69.8 70.5,69.8 75.5,73 25.9,73 30.8,69.8 43.1,69.8 39.5,66.2 24.1,66.2 3.8,76.9 3.8,83 97.6,83 97.6,76.9 "
           id="polygon1"
           transform="matrix(-0.1984375,0,0,0.1984375,179.45848,162.42009)" /><path
           d="m 174.93411,165.01962 c 0,0 -1.38906,-0.25797 -2.02406,-0.15876 -0.73422,0.13891 -3.96876,1.74626 -4.28625,2.30188 -0.25797,0.45641 -1.74625,3.51235 -1.84547,4.22672 l 3.11546,-3.13531 c 0.11907,-0.11906 0.25797,-0.11906 0.37704,0 l 2.52015,2.54 c 0.71438,-0.23812 1.46844,-0.61516 1.74625,-0.89297 0.73422,-0.71438 0.97235,-1.76609 1.46844,-2.06375 0.4961,-0.29766 2.93687,-0.53578 2.93687,-0.53578 v -2.97656 z"
           id="path1-9"
           style="stroke-width:0.198437" /><path
           d="m 178.94254,165.59508 v 3.01626 l -2.91702,0.39687 c 0,0 -1.05172,1.48828 -1.42875,1.80578 -0.35719,0.3175 -2.2225,1.11125 -2.63922,1.28985 -0.55563,0.23812 -1.7661,1.15093 -1.96453,0.73421 -0.25797,-0.53578 -0.0596,-1.68671 0.87312,-2.10343 0.91282,-0.43656 3.11547,-1.46844 3.07578,-1.74625 -0.0397,-0.27782 -0.3175,-1.86532 -0.3175,-1.86532 z"
           id="path2-2"
           style="stroke-width:0.198437" /><rect
           x="-177.95036"
           y="179.24759"
           width="17.125156"
           height="1.74625"
           id="rect2"
           style="stroke-width:0.198437"
           transform="scale(-1,1)" /><path
           d="m 164.67489,174.1279 5.2189,-5.37766 c 0.0992,-0.0992 0.23813,-0.0992 0.33735,0 l 1.23031,1.25016 c -0.29765,0.15875 -0.59531,0.27781 -0.81359,0.37703 -1.17078,0.55562 -1.23032,2.12328 -0.91281,2.81781 0.23812,0.53578 1.74625,-0.55562 2.46062,-0.85328 0.19844,-0.0794 0.59531,-0.25797 1.07156,-0.47625 l 0.51594,0.51594 c 0.0992,0.0992 0.0992,0.23812 0,0.33734 l -3.86953,4.00844 h -3.05594 l -2.18281,-2.24234 c -0.0992,-0.11906 -0.0992,-0.25797 0,-0.35719 z"
           id="path3-0"
           style="stroke-width:0.198437" /></g></g><path
       d="m 151.92189,140.58435 a 0.2856957,0.2856957 0 0 0 -0.28506,-9e-4 l -4.44714,2.53419 h -8.53926 l -4.44713,-2.53419 a 0.28567284,0.28567284 0 0 0 -0.42724,0.24821 v 17.7164 a 0.28568142,0.28568142 0 0 0 0.42724,0.24821 l 4.44713,-2.5342 h 8.53926 l 4.44714,2.5342 a 0.28567284,0.28567284 0 0 0 0.42724,-0.24821 v -17.7164 a 0.28576858,0.28576858 0 0 0 -0.14218,-0.2471 z m -5.00132,15.106 h -2.61775 l -0.43592,-2.47001 a 1.3361813,1.3361813 0 0 0 0.48192,-1.02246 1.4302258,1.4302258 0 0 0 -2.85751,0 1.3361813,1.3361813 0 0 0 0.48192,1.02246 l -0.43593,2.47002 h -2.61774 v -12.00144 h 8.00101 z"
       id="path1-37"
       style="stroke-width:0.142875" /><path
       d="m 165.81955,142.15678 c 0,-0.16123 0.13146,-0.29186 0.29187,-0.29186 h 7.52666 c 0.16122,0 0.29186,0.13146 0.29186,0.29186 0,0.16123 -0.13146,0.29186 -0.29186,0.29186 h -7.52666 c -0.16123,0 -0.29187,-0.13146 -0.29187,-0.29186 z m 14.4761,18.42326 c -0.27534,0.27533 -0.635,0.41257 -0.99714,0.41257 -0.36214,0 -0.72183,-0.13725 -0.99714,-0.41257 l -1.28901,-1.28901 h -13.02174 c -0.16122,0 -0.29186,-0.13147 -0.29186,-0.29187 v -18.38769 c 0,-0.16123 0.13146,-0.29187 0.29186,-0.29187 h 11.78963 0.0298 c 0.008,0 0.0149,0 0.0215,0.004 h 0.006 c 0.008,0 0.0166,0.004 0.0256,0.006 0.008,0.002 0.0166,0.006 0.0256,0.008 0.008,0.004 0.0166,0.006 0.0231,0.0107 h 0.002 c 0.006,0.004 0.0149,0.008 0.0215,0.0124 0,0 0.002,0 0.004,0.002 0.006,0.004 0.0124,0.008 0.019,0.0149 0,0 0.002,0.002 0.004,0.004 0.006,0.006 0.0149,0.0124 0.0215,0.019 l 2.89792,2.89792 c 0,0 0.0124,0.0149 0.019,0.0215 0,0 0.002,0.002 0.004,0.004 0.004,0.006 0.008,0.0124 0.0149,0.019 0,0 0,0.002 0.002,0.004 0.004,0.006 0.008,0.0124 0.0124,0.0215 v 0.002 c 0.004,0.008 0.008,0.0149 0.0107,0.0231 0.004,0.008 0.006,0.0166 0.008,0.0256 0.002,0.008 0.004,0.0166 0.006,0.0256 v 0.006 c 0,0.006 0.002,0.0149 0.004,0.0215 v 0.0298 13.7541 l 1.32292,1.32292 c 0.55068,0.55067 0.55068,1.44362 0,1.9943 z m -4.22084,-17.36323 h 1.89672 l -1.89672,-1.89673 z m 0.35388,15.48553 -1.32952,-1.32952 c -0.1141,-0.1141 -0.1141,-0.30097 0,-0.41506 l 0.25631,-0.25631 -1.37831,-1.3783 c -0.72183,0.49525 -1.59411,0.78547 -2.53344,0.78547 -2.4746,0 -4.48712,-2.01331 -4.48712,-4.48712 0,-2.4746 2.01331,-4.48713 4.48712,-4.48713 2.47459,0 4.48712,2.01331 4.48712,4.48713 0,0.99054 -0.32411,1.90912 -0.86983,2.65239 l 1.36096,1.36095 0.25383,-0.25383 c 0.1141,-0.11409 0.30096,-0.11409 0.41505,0 l 1.29729,1.29563 v -12.87356 h -2.60541 c -0.16122,0 -0.29186,-0.13146 -0.29186,-0.29187 v -2.6054 h -11.20585 v 17.79905 h 12.14353 z m -0.42086,-2.65239 -1.32539,-1.3254 c -0.0786,0.0802 -0.15875,0.15875 -0.24308,0.23482 l 1.32952,1.32952 z m -0.66228,-4.4285 c 0,-2.15307 -1.75038,-3.90334 -3.90334,-3.90334 -2.15297,0 -3.90336,1.75037 -3.90336,3.90334 0,2.15297 1.75039,3.90335 3.90336,3.90335 2.15296,0 3.90334,-1.75038 3.90334,-3.90335 z m 4.77731,7.9591 c 0,-0.21995 -0.0843,-0.42747 -0.23895,-0.58209 l -2.99974,-2.9972 -0.24308,0.24308 c 0,0 -0.008,0.008 -0.0107,0.0124 -0.002,0.004 -0.008,0.008 -0.0124,0.0107 l -0.89297,0.89298 2.9972,2.99974 c 0.32162,0.32162 0.84253,0.32162 1.16417,0 0.15461,-0.15462 0.23895,-0.36214 0.23895,-0.58209 z m -5.35537,-7.9591 c 0,1.83308 -1.48995,3.32296 -3.32296,3.32296 -1.83308,0 -3.32296,-1.48994 -3.32296,-3.32296 0,-1.833 1.48995,-3.32295 3.32296,-3.32295 1.83308,0 3.32296,1.48994 3.32296,3.32295 z m -0.58621,0 c 0,-1.50895 -1.22784,-2.73685 -2.73686,-2.73685 -1.50894,0 -2.73685,1.22784 -2.73685,2.73685 0,1.50902 1.22784,2.73686 2.73685,2.73686 1.50895,0 2.73686,-1.22784 2.73686,-2.73686 z m -8.06979,-7.74403 h 7.52665 c 0.16123,0 0.29187,-0.13146 0.29187,-0.29187 0,-0.16123 -0.13147,-0.29187 -0.29187,-0.29187 l -7.52665,-8e-4 c -0.16124,0 -0.29188,0.13147 -0.29188,0.29187 0,0.16123 0.13147,0.29187 0.29188,0.29187 z m 7.82087,1.1344 c 0,-0.16122 -0.13147,-0.29186 -0.29187,-0.29186 h -7.52899 c -0.16123,0 -0.29186,0.13146 -0.29186,0.29186 0,0.16123 0.13146,0.29187 0.29186,0.29187 h 7.52666 c 0.16123,0 0.29187,-0.13146 0.29187,-0.29187 z m -0.18191,6.75682 c -0.47624,0.82105 -1.36095,1.3312 -2.30928,1.3312 -0.94837,0 -1.83308,-0.51015 -2.30674,-1.3312 -0.0529,-0.0909 -0.0529,-0.20339 0,-0.29434 0.47625,-0.82103 1.3593,-1.33119 2.30674,-1.33119 0.94837,0 1.83308,0.51016 2.30928,1.33119 0.0529,0.091 0.0529,0.2034 0,0.29434 z m -1.5999,-0.14634 c 0,-0.38942 -0.3175,-0.70942 -0.70942,-0.70942 -0.39192,0 -0.70692,0.3175 -0.70692,0.70942 0,0.39192 0.31749,0.70692 0.70692,0.70692 0.38942,0 0.70942,-0.3175 0.70942,-0.70692 z m -1.89012,0.52256 c -0.0719,-0.16123 -0.10997,-0.3365 -0.10997,-0.52256 0,-0.18604 0.0405,-0.36214 0.10997,-0.52256 -0.2034,0.13973 -0.38117,0.31502 -0.52504,0.52256 0.14386,0.20505 0.32162,0.38282 0.52504,0.52256 z m 2.89137,-0.52256 c -0.14387,-0.20505 -0.32163,-0.38282 -0.52504,-0.52256 0.0694,0.16122 0.10997,0.3365 0.10997,0.52256 0,0.18603 -0.0405,0.36214 -0.10997,0.52256 0.2034,-0.13973 0.38117,-0.31502 0.52504,-0.52256 z"
       id="path1-22"
       style="stroke-width:0.211666" /><text
       x="131.6219"
       y="164.65355"
       fill="#000000"
       font-size="1.32292px"
       font-weight="bold"
       font-family="'Helvetica Neue', Helvetica, Arial-Unicode, Arial, Sans-serif"
       id="text2-0-1"
       style="font-style:normal;font-variant:normal;font-weight:normal;font-stretch:normal;font-size:4.93889px;font-family:'Arbeit Regular', Helvetica, Arial-Unicode, Arial, Sans-serif;-inkscape-font-specification:'Arbeit Regular, Helvetica, Arial-Unicode, Arial, Sans-serif, Normal';font-variant-ligatures:normal;font-variant-caps:normal;font-variant-numeric:normal;font-variant-east-asian:normal;stroke-width:0.264583">Openness</text><text
       x="156.77255"
       y="166.27217"
       fill="#000000"
       font-size="1.32292px"
       font-weight="bold"
       font-family="'Helvetica Neue', Helvetica, Arial-Unicode, Arial, Sans-serif"
       id="text2-0-68"
       style="font-style:normal;font-variant:normal;font-weight:normal;font-stretch:normal;font-size:4.93889px;font-family:'Arbeit Regular', Helvetica, Arial-Unicode, Arial, Sans-serif;-inkscape-font-specification:'Arbeit Regular, Helvetica, Arial-Unicode, Arial, Sans-serif, Normal';font-variant-ligatures:normal;font-variant-caps:normal;font-variant-numeric:normal;font-variant-east-asian:normal;stroke-width:0.264583">Transparency</text><text
       xml:space="preserve"
       style="font-weight:300;font-size:6.35px;line-height:1.65;font-family:'Alibaba PuHuiTi';-inkscape-font-specification:'Alibaba PuHuiTi, Light';letter-spacing:0px;word-spacing:0px;stroke-width:0.264583;fill:#0000ff"
       x="99.473152"
       y="183.68369"
       id="text13-6"><tspan
         sodipodi:role="line"
         style="font-style:normal;font-variant:normal;font-weight:900;font-stretch:normal;line-height:1.65;font-family:'Alibaba PuHuiTi';-inkscape-font-specification:'Alibaba PuHuiTi Heavy';text-align:center;text-anchor:middle;stroke-width:0.264583;fill:#0000ff"
         x="99.473152"
         y="183.68369"
         id="tspan15-9">Free</tspan></text><text
       xml:space="preserve"
       style="font-weight:300;font-size:6.35px;line-height:1.65;font-family:'Alibaba PuHuiTi';-inkscape-font-specification:'Alibaba PuHuiTi, Light';letter-spacing:0px;word-spacing:0px;stroke-width:0.264583;fill:#ff0000"
       x="99.517838"
       y="197.36723"
       id="text13-8"><tspan
         sodipodi:role="line"
         style="font-style:normal;font-variant:normal;font-weight:900;font-stretch:normal;line-height:1.65;font-family:'Alibaba PuHuiTi';-inkscape-font-specification:'Alibaba PuHuiTi Heavy';text-align:center;text-anchor:middle;stroke-width:0.264583;fill:#ff0000"
         x="99.517838"
         y="197.36723"
         id="tspan15-1">True</tspan></text><text
       xml:space="preserve"
       style="font-weight:300;font-size:6.35px;line-height:1.65;font-family:'Alibaba PuHuiTi';-inkscape-font-specification:'Alibaba PuHuiTi, Light';letter-spacing:0px;word-spacing:0px;stroke-width:0.264583;fill:#000000"
       x="128.17123"
       y="184.08617"
       id="text13-2"><tspan
         sodipodi:role="line"
         style="font-style:normal;font-variant:normal;font-weight:900;font-stretch:normal;line-height:1.65;font-family:'Alibaba PuHuiTi';-inkscape-font-specification:'Alibaba PuHuiTi Heavy';text-align:center;text-anchor:middle;stroke-width:0.264583;fill:#000000"
         x="128.17123"
         y="184.08617"
         id="tspan15-6">Open</tspan></text><text
       xml:space="preserve"
       style="font-weight:300;font-size:6.35px;line-height:1.65;font-family:'Alibaba PuHuiTi';-inkscape-font-specification:'Alibaba PuHuiTi, Light';letter-spacing:0px;word-spacing:0px;stroke-width:0.264583;fill:#008000"
       x="133.46077"
       y="197.30118"
       id="text13-1"><tspan
         sodipodi:role="line"
         style="font-style:normal;font-variant:normal;font-weight:900;font-stretch:normal;line-height:1.65;font-family:'Alibaba PuHuiTi';-inkscape-font-specification:'Alibaba PuHuiTi Heavy';text-align:center;text-anchor:middle;stroke-width:0.264583;fill:#008000"
         x="133.46077"
         y="197.30118"
         id="tspan15-94">Democratic</tspan></text><g
       id="g28"
       transform="translate(-0.78144433,-27.787048)"><text
         x="153.79977"
         y="261.62848"
         fill="#000000"
         font-size="1.32292px"
         font-weight="bold"
         font-family="'Helvetica Neue', Helvetica, Arial-Unicode, Arial, Sans-serif"
         id="text2-0-1-0"
         style="font-style:normal;font-variant:normal;font-weight:normal;font-stretch:normal;font-size:4.93889px;font-family:'Arbeit Regular', Helvetica, Arial-Unicode, Arial, Sans-serif;-inkscape-font-specification:'Arbeit Regular, Helvetica, Arial-Unicode, Arial, Sans-serif, Normal';font-variant-ligatures:normal;font-variant-caps:normal;font-variant-numeric:normal;font-variant-east-asian:normal;stroke-width:0.264583">Egality</text><path
         d="m 161.48223,238.5118 v -1.89341 h -0.82683 v 1.89341 c -0.39687,0.38862 -1.32704,1.38081 -1.5875,2.24071 h -10.4013 v 0.82682 h 4.82045 l -1.82314,6.2013 h -1.34358 c -0.22738,0 -0.41341,0.18604 -0.41341,0.41342 0,2.2779 1.85621,4.13411 4.13411,4.13411 2.2779,0 4.13412,-1.85621 4.13412,-4.13411 0,-0.22738 -0.18604,-0.41342 -0.41342,-0.41342 h -1.34358 l -1.82313,-6.2013 h 4.44817 c 0.16537,0.81029 0.80201,1.44695 1.61232,1.61232 v 10.37669 h -0.41341 c -1.14102,0 -2.06706,0.92604 -2.06706,2.06706 0,0.22738 0.18603,0.41341 0.41341,0.41341 h 4.96094 c 0.22738,0 0.41341,-0.18603 0.41341,-0.41341 0,-1.14102 -0.92604,-2.06706 -2.06706,-2.06706 h -0.41341 v -10.37669 c 0.81029,-0.16537 1.44695,-0.80201 1.61232,-1.61232 h 4.44817 l -1.82313,6.2013 h -1.34358 c -0.22738,0 -0.41342,0.18604 -0.41342,0.41342 0,2.2779 1.85622,4.13411 4.13412,4.13411 2.2779,0 4.13411,-1.85621 4.13411,-4.13411 0,-0.22738 -0.18603,-0.41342 -0.41341,-0.41342 h -1.34358 l -1.82314,-6.2013 h 4.82045 v -0.82682 h -10.4013 c -0.25632,-0.86403 -1.19063,-1.85209 -1.5875,-2.24071 z m -4.15899,10.09545 c -0.20257,1.62882 -1.59991,2.89401 -3.28242,2.89401 -1.68251,0 -3.07578,-1.26503 -3.28242,-2.89401 z m -1.76527,-0.82683 h -3.03028 l 1.5131,-5.15117 1.5131,5.15117 z m 6.34179,6.61459 c 0.53743,0 1.00045,0.34726 1.16997,0.82682 h -3.99363 c 0.1695,-0.47956 0.62839,-0.82682 1.16997,-0.82682 z m -0.82682,-11.9888 c -0.68212,0 -1.24023,-0.55812 -1.24023,-1.24024 0,-0.43407 0.6532,-1.28571 1.24023,-1.89756 0.58706,0.61185 1.24024,1.46346 1.24024,1.89756 0,0.68212 -0.55812,1.24024 -1.24024,1.24024 z m 10.31055,6.2013 c -0.20257,1.62883 -1.59991,2.89401 -3.28242,2.89401 -1.68251,0 -3.07578,-1.26502 -3.28242,-2.89401 z m -1.76527,-0.82682 h -3.03028 l 1.5131,-5.15118 1.5131,5.15118 z"
         id="path1-4"
         style="stroke-width:0.264583" /></g><text
       x="112.94405"
       y="124.54332"
       font-size="1.32292px"
       font-weight="bold"
       font-family="'Arbeit Regular', Helvetica, Arial-Unicode, Arial, Sans-serif"
       fill="#000000"
       id="text1-81"
       style="font-style:normal;font-variant:normal;font-weight:normal;font-stretch:normal;font-size:4.23333px;font-family:'Arbeit Regular', Helvetica, Arial-Unicode, Arial, Sans-serif;-inkscape-font-specification:'Arbeit Regular, Helvetica, Arial-Unicode, Arial, Sans-serif, Normal';font-variant-ligatures:normal;font-variant-caps:normal;font-variant-numeric:normal;font-variant-east-asian:normal;stroke-width:0.264583" /></g><style
     type="text/css"
     id="style1">
	.st0{fill-rule:evenodd;clip-rule:evenodd;}
</style><style
     type="text/css"
     id="style1-2">
	.st0{fill-rule:evenodd;clip-rule:evenodd;}
</style><style
     type="text/css"
     id="style1-26">
	.st0{fill-rule:evenodd;clip-rule:evenodd;}
</style></svg>
