<?xml version="1.0" encoding="UTF-8" standalone="no"?>
<!-- Created with Inkscape (http://www.inkscape.org/) -->

<svg
   xmlns:dc="http://purl.org/dc/elements/1.1/"
   xmlns:cc="http://creativecommons.org/ns#"
   xmlns:rdf="http://www.w3.org/1999/02/22-rdf-syntax-ns#"
   xmlns:svg="http://www.w3.org/2000/svg"
   xmlns="http://www.w3.org/2000/svg"
   xmlns:sodipodi="http://sodipodi.sourceforge.net/DTD/sodipodi-0.dtd"
   xmlns:inkscape="http://www.inkscape.org/namespaces/inkscape"
   width="84.507439mm"
   height="70.159714mm"
   viewBox="0 0 84.507439 70.159714"
   version="1.1"
   id="svg8"
   inkscape:export-filename="/home/yky/latex/humanities/HK-chatroom-icon.png"
   inkscape:export-xdpi="384"
   inkscape:export-ydpi="384"
   sodipodi:docname="HK-chatroom-icon.svg"
   inkscape:version="0.92.3 (2405546, 2018-03-11)">
  <defs
     id="defs2" />
  <sodipodi:namedview
     id="base"
     pagecolor="#ffffff"
     bordercolor="#666666"
     borderopacity="1.0"
     inkscape:pageopacity="1"
     inkscape:pageshadow="2"
     inkscape:zoom="4"
     inkscape:cx="153.31281"
     inkscape:cy="124.39776"
     inkscape:document-units="mm"
     inkscape:current-layer="layer1"
     showgrid="false"
     inkscape:snap-global="false"
     inkscape:window-width="1050"
     inkscape:window-height="1659"
     inkscape:window-x="0"
     inkscape:window-y="0"
     inkscape:window-maximized="1"
     fit-margin-top="15"
     fit-margin-left="20"
     fit-margin-right="20"
     fit-margin-bottom="15" />
  <metadata
     id="metadata5">
    <rdf:RDF>
      <cc:Work
         rdf:about="">
        <dc:format>image/svg+xml</dc:format>
        <dc:type
           rdf:resource="http://purl.org/dc/dcmitype/StillImage" />
        <dc:title></dc:title>
      </cc:Work>
    </rdf:RDF>
  </metadata>
  <g
     inkscape:label="Layer 1"
     inkscape:groupmode="layer"
     id="layer1"
     transform="translate(-55.441394,-115.90803)"
     style="display:inline">
    <g
       id="g841"
       transform="translate(-10.980208,114.89531)">
      <path
         sodipodi:nodetypes="ssssssss"
         inkscape:connector-curvature="0"
         id="rect36"
         d="m 92.955988,44.626578 c 0,0 1.740521,2.094477 3.472653,2.116667 2.201607,0.0282 3.737239,-2.116667 3.737239,-2.116667 4.9626,1.112824 5.04884,0.988849 6.31693,7.37526 1.0774,5.426009 -1.3255,4.001822 -5.65547,4.001822 h -8.797394 c -5.78518,0 -6.23306,1.162304 -5.126302,-5.390884 0.628747,-3.722856 0.730184,-5.126302 6.052344,-5.986198 z"
         style="opacity:1;vector-effect:none;fill:#00c0ff;fill-opacity:1;stroke:none;stroke-width:0.26458332;stroke-miterlimit:4;stroke-dasharray:none;stroke-dashoffset:0" />
      <path
         inkscape:connector-curvature="0"
         transform="matrix(0.26458333,0,0,0.26458333,78.900002,131.99323)"
         id="path54"
         d="m 66.875,-389.95508 c -14.152297,0 -27,11.60874 -24,29 0.680651,3.94579 1.966976,7.81955 3.263672,11.28906 1.296695,3.46952 2.307888,6.58462 4.617187,9.2168 5.262214,5.99797 9.042992,8.49415 16.119141,8.49414 7.076145,-10e-6 10.771844,-4.22992 13.994141,-8.49414 3.132963,-4.146 1.324781,-3.15071 4.367187,-7.7168 3.042406,-4.56608 4.271486,-1.75044 5.013672,-12.16406 5.110413,-14.60499 -9.222699,-29.62499 -23.375,-29.625 z m -10.005859,20.38281 c 6.953556,6.70955 16.476679,9.49169 27.449218,10.1543 2.183509,1.48817 0.696761,7.08195 -1.443359,9.02539 -2.375017,2.15673 -1.860603,5.01575 -4.869141,8.80469 -3.008534,3.78894 -7.164992,6.13281 -11.755859,6.13281 -4.590867,0 -8.507934,-1.81259 -11.630859,-5.50781 -4.258534,-5.03894 -4.365476,-7.89456 -5.494141,-9.42969 -1.153175,-1.56846 -2.659631,-6.39546 -1.193359,-9.27539 4.591275,-2.75493 6.683234,-6.63483 8.9375,-9.9043 z"
         style="opacity:1;vector-effect:none;fill:#00c0ff;fill-opacity:1;stroke:none;stroke-width:0.99999994;stroke-miterlimit:4;stroke-dasharray:none;stroke-dashoffset:0" />
    </g>
    <g
       id="g837"
       style="fill:#ff00ff;fill-opacity:1"
       transform="translate(-9.9218753,114.89531)">
      <path
         sodipodi:nodetypes="ssssssss"
         inkscape:connector-curvature="0"
         id="rect36-3"
         d="m 116.08765,44.476044 c 0,0 1.74052,2.09448 3.47266,2.11667 2.2016,0.0282 3.73724,-2.11667 3.73724,-2.11667 4.9626,1.11282 5.04884,0.98885 6.31693,7.37526 1.0774,5.42601 -1.3255,4.00182 -5.65547,4.00182 h -8.7974 c -5.78518,0 -6.23306,1.16231 -5.1263,-5.39088 0.62875,-3.72286 0.73018,-5.1263 6.05234,-5.9862 z"
         style="opacity:1;vector-effect:none;fill:#ff00ff;fill-opacity:1;stroke:none;stroke-width:0.26458332;stroke-miterlimit:4;stroke-dasharray:none;stroke-dashoffset:0" />
      <path
         inkscape:connector-curvature="0"
         id="path54-6"
         d="m 119.94453,30.636627 c -2.15697,0 -5.92004,1.483979 -5.58932,6.217708 0.0738,1.056833 0.1897,1.539761 0.53278,2.45773 0.34308,0.917983 0.6898,1.757077 1.18856,2.537831 0.92927,1.454668 1.89653,2.1482 3.76876,2.148189 1.87223,0 2.99213,-1.024707 3.70262,-2.247408 0.25077,-0.431554 0.17452,-0.499618 0.58653,-0.979268 1.73821,1.431245 3.0106,1.88967 3.24786,1.550292 0.13966,-0.199766 -0.64504,-0.440209 -0.5209,-1.393711 0.18099,-1.390275 0.78793,-2.647339 0.78393,-4.033864 -0.003,-0.887929 -0.0599,-2.465541 -2.4753,-2.718697 -0.73146,-1.846781 -2.73783,-3.538802 -5.22552,-3.538802 z m -2.15129,4.632274 c 1.8398,1.775233 3.36702,2.44892 6.00584,2.35593 0.69871,-0.02462 0.82545,1.105897 0.0925,1.99781 -0.47149,0.573778 -0.31183,0.353235 -0.91674,1.600936 -0.55844,1.151845 -1.981,1.980758 -3.19567,1.980758 -1.21466,0 -2.01955,-0.446503 -2.84582,-1.424202 -1.12674,-1.333219 -1.30436,-2.078302 -1.44953,-2.561084 -0.17281,-0.574681 -0.26377,-1.437852 0.40773,-1.891359 1.48524,-1.003064 1.389,-1.356976 1.90169,-2.058789 z"
         style="display:inline;opacity:1;vector-effect:none;fill:#ff00ff;fill-opacity:1;stroke:none;stroke-width:0.26458332;stroke-miterlimit:4;stroke-dasharray:none;stroke-dashoffset:0" />
    </g>
    <path
       style="opacity:1;vector-effect:none;fill:#ffffff;fill-opacity:1;stroke:#000000;stroke-width:3;stroke-linejoin:round;stroke-miterlimit:4;stroke-dasharray:none;stroke-dashoffset:0;stroke-opacity:1"
       d="m 127.21875,50.625 c -5.02725,0 -9.07422,4.046956 -9.07422,9.074219 v 16.617187 c 0,5.027301 4.04697,9.074219 9.07422,9.074219 h 6.38672 L 131.52148,99 143.99609,85.390625 h 22.51953 l 22.10785,22.678945 -10.37933,-22.678945 h 9.85352 c 5.02726,0 9.07422,-4.046918 9.07422,-9.074219 V 59.699219 c 0,-5.027263 -4.04696,-9.074219 -9.07422,-9.074219 z"
       transform="matrix(0.26458333,0,0,0.26458333,55.441394,115.90803)"
       id="rect21"
       inkscape:connector-curvature="0"
       sodipodi:nodetypes="ssssccccccsssss" />
    <path
       style="display:inline;opacity:1;vector-effect:none;fill:#b9eeff;fill-opacity:1;stroke:#000000;stroke-width:0.79374999;stroke-linejoin:round;stroke-miterlimit:4;stroke-dasharray:none;stroke-dashoffset:0;stroke-opacity:1"
       d="m 119.5629,198.73401 c -1.33013,0 -2.40088,1.07076 -2.40088,2.40089 v 4.95784 c 0,1.26236 0.96509,2.28899 2.20038,2.39055 l -0.87024,2.73988 3.00187,-2.72954 h 8.7969 c 1.33013,0 2.40089,-1.07076 2.40089,-2.40089 v -4.95784 c 0,-1.33013 -1.07076,-2.40089 -2.40089,-2.40089 z"
       id="rect21-3-5"
       inkscape:connector-curvature="0"
       sodipodi:nodetypes="ssscccsssss" />
    <path
       style="display:inline;opacity:1;vector-effect:none;fill:#ffc5ff;fill-opacity:1;stroke:#000000;stroke-width:0.79374999;stroke-linejoin:round;stroke-miterlimit:4;stroke-dasharray:none;stroke-dashoffset:0;stroke-opacity:1"
       d="m 125.86639,201.04602 c -1.33013,0 -2.40089,1.07075 -2.40089,2.40088 v 4.39663 c 0,1.33014 1.07076,2.40089 2.40089,2.40089 h 4.04753 l 2.70348,3.00705 -0.65887,-3.00705 h 1.54874 c 1.33013,0 2.40088,-1.07075 2.40088,-2.40089 v -4.39663 c 0,-1.33013 -1.07075,-2.40088 -2.40088,-2.40088 z"
       id="rect21-35"
       inkscape:connector-curvature="0"
       sodipodi:nodetypes="sssscccsssss" />
    <path
       style="fill:none;stroke:#999999;stroke-width:1.05833328;stroke-linecap:round;stroke-linejoin:miter;stroke-miterlimit:4;stroke-dasharray:none;stroke-opacity:1"
       d="M 90.167955,132.42347 H 103.79399"
       id="path942"
       inkscape:connector-curvature="0" />
    <path
       style="display:inline;fill:none;stroke:#999999;stroke-width:1.05833328;stroke-linecap:round;stroke-linejoin:miter;stroke-miterlimit:4;stroke-dasharray:none;stroke-opacity:1"
       d="M 90.101812,134.93701 H 103.72785"
       id="path942-6"
       inkscape:connector-curvature="0" />
  </g>
  <g
     inkscape:groupmode="layer"
     id="layer2"
     inkscape:label="above"
     style="display:inline;opacity:1"
     sodipodi:insensitive="true"
     transform="translate(23.458608,16.085205)">
    <g
       style="display:inline"
       id="g900"
       transform="translate(-80.752085,-59.497397)">
      <ellipse
         ry="2.5135417"
         rx="2.3812499"
         cy="142.48334"
         cx="101.33543"
         id="path3713-3"
         style="opacity:1;vector-effect:none;fill:#ffc2dc;fill-opacity:1;stroke:none;stroke-width:0.13229166;stroke-miterlimit:4;stroke-dasharray:none;stroke-dashoffset:0" />
      <rect
         ry="2.5135417"
         y="144.99687"
         x="96.969795"
         height="11.377081"
         width="8.3343763"
         id="rect4520-6"
         style="opacity:1;vector-effect:none;fill:#ffc2dc;fill-opacity:1;stroke:none;stroke-width:0.13229166;stroke-miterlimit:4;stroke-dasharray:none;stroke-dashoffset:0" />
      <rect
         ry="0"
         y="155.9771"
         x="99.351051"
         height="8.5989542"
         width="3.5718768"
         id="rect4522-7"
         style="opacity:1;vector-effect:none;fill:#ffc2dc;fill-opacity:1;stroke:none;stroke-width:0.13229166;stroke-miterlimit:4;stroke-dasharray:none;stroke-dashoffset:0" />
      <ellipse
         ry="2.5135417"
         rx="2.3812499"
         cy="139.50677"
         cx="93.265625"
         id="path3713"
         style="opacity:1;vector-effect:none;fill:#385fff;fill-opacity:1;stroke:none;stroke-width:0.13229166;stroke-miterlimit:4;stroke-dasharray:none;stroke-dashoffset:0" />
      <rect
         ry="2.5135417"
         y="142.02031"
         x="88.900002"
         height="13.890625"
         width="8.7312498"
         id="rect4520"
         style="opacity:1;vector-effect:none;fill:#385fff;fill-opacity:1;stroke:none;stroke-width:0.13229166;stroke-miterlimit:4;stroke-dasharray:none;stroke-dashoffset:0" />
      <rect
         ry="0"
         y="153.00053"
         x="91.28125"
         height="11.641666"
         width="3.8364582"
         id="rect4522"
         style="opacity:1;vector-effect:none;fill:#385fff;fill-opacity:1;stroke:none;stroke-width:0.13229166;stroke-miterlimit:4;stroke-dasharray:none;stroke-dashoffset:0" />
    </g>
  </g>
</svg>
